<?xml version="1.0" encoding="UTF-8" standalone="no"?>
<!DOCTYPE svg PUBLIC "-//W3C//DTD SVG 1.1//EN" "http://www.w3.org/Graphics/SVG/1.1/DTD/svg11.dtd">
<svg width="100%" height="100%" viewBox="0 0 68 673" version="1.1" xmlns="http://www.w3.org/2000/svg" xmlns:xlink="http://www.w3.org/1999/xlink" xml:space="preserve" xmlns:serif="http://www.serif.com/" style="fill-rule:evenodd;clip-rule:evenodd;stroke-miterlimit:1.5;">
    <g transform="matrix(1,0,0,1,-1257.87,-192.873)">
        <path d="M1278.59,741.303L1278.06,702.139L1274.5,646.298L1274.5,197L1290.5,197L1290.5,646.298L1286.94,702.139L1286.41,740.886L1303,740L1303,755.31L1286.23,754.415L1284.72,864L1280.28,864L1278.77,754.016L1262,753.121L1262,742.19L1278.59,741.303ZM1275.02,197C1273.79,196.995 1273.54,196.325 1273.54,195.5C1273.54,194.672 1273.79,194 1275.03,194L1290.07,194C1291.3,194.005 1291.54,194.675 1291.54,195.5C1291.54,196.328 1291.3,197 1290.05,197L1275.02,197Z" style="fill:none;stroke:black;stroke-width:1.25px;"/>
        <rect x="1303" y="743" width="8" height="9" style="fill:none;stroke:black;stroke-width:1.25px;"/>
        <g transform="matrix(0.375,0,0,1.08908,770.375,-66.5903)">
            <rect x="1303" y="743" width="8" height="9" style="fill:rgb(192,192,192);stroke:black;stroke-width:1.53px;"/>
        </g>
        <g transform="matrix(1,0,0,1,-3,-2.27374e-13)">
            <path d="M1314,738.71L1320.57,730C1320.57,730 1320.72,729 1323.86,729C1327,729 1327,730 1327,730L1327,766C1327,766 1327,767 1323.86,767C1320.72,767 1320.57,766 1320.57,766L1314,757.29L1314,738.71Z" style="fill:rgb(190,189,189);stroke:rgb(5,0,0);stroke-width:1.25px;"/>
        </g>
        <g transform="matrix(1.11959,0,0,1.11959,-155.003,-76.8185)">
            <path d="M1277,618L1291,618" style="fill:none;stroke:rgb(5,0,0);stroke-width:0.37px;"/>
        </g>
        <g transform="matrix(1.11959,0,0,1.11959,-155.003,-106.628)">
            <path d="M1277,618L1291,618" style="fill:none;stroke:rgb(5,0,0);stroke-width:0.37px;"/>
        </g>
        <g transform="matrix(0.491921,0,0,1.11959,650.931,-79.7994)">
            <path d="M1277,618L1291,618" style="fill:none;stroke:rgb(5,0,0);stroke-width:0.48px;"/>
        </g>
        <g transform="matrix(0.491921,0,0,1.11959,650.931,-82.7803)">
            <path d="M1277,618L1291,618" style="fill:none;stroke:rgb(5,0,0);stroke-width:0.48px;"/>
        </g>
        <g transform="matrix(0.491921,0,0,1.11959,650.931,-85.7612)">
            <path d="M1277,618L1291,618" style="fill:none;stroke:rgb(5,0,0);stroke-width:0.48px;"/>
        </g>
        <g transform="matrix(0.491921,0,0,1.11959,650.931,-88.7421)">
            <path d="M1277,618L1291,618" style="fill:none;stroke:rgb(5,0,0);stroke-width:0.48px;"/>
        </g>
        <g transform="matrix(0.777635,0,0,1.11959,284.073,-91.723)">
            <path d="M1277,618L1291,618" style="fill:none;stroke:rgb(5,0,0);stroke-width:0.43px;"/>
        </g>
        <g transform="matrix(0.491921,0,0,1.11959,650.931,-94.704)">
            <path d="M1277,618L1291,618" style="fill:none;stroke:rgb(5,0,0);stroke-width:0.48px;"/>
        </g>
        <g transform="matrix(0.491921,0,0,1.11959,650.931,-97.6849)">
            <path d="M1277,618L1291,618" style="fill:none;stroke:rgb(5,0,0);stroke-width:0.48px;"/>
        </g>
        <g transform="matrix(0.491921,0,0,1.11959,650.931,-100.666)">
            <path d="M1277,618L1291,618" style="fill:none;stroke:rgb(5,0,0);stroke-width:0.48px;"/>
        </g>
        <g transform="matrix(0.491921,0,0,1.11959,650.931,-103.647)">
            <path d="M1277,618L1291,618" style="fill:none;stroke:rgb(5,0,0);stroke-width:0.48px;"/>
        </g>
        <g transform="matrix(1.11959,0,0,1.11959,-155.003,-136.437)">
            <path d="M1277,618L1291,618" style="fill:none;stroke:rgb(5,0,0);stroke-width:0.37px;"/>
        </g>
        <g transform="matrix(0.491921,0,0,1.11959,650.931,-109.608)">
            <path d="M1277,618L1291,618" style="fill:none;stroke:rgb(5,0,0);stroke-width:0.48px;"/>
        </g>
        <g transform="matrix(0.491921,0,0,1.11959,650.931,-112.589)">
            <path d="M1277,618L1291,618" style="fill:none;stroke:rgb(5,0,0);stroke-width:0.48px;"/>
        </g>
        <g transform="matrix(0.491921,0,0,1.11959,650.931,-115.57)">
            <path d="M1277,618L1291,618" style="fill:none;stroke:rgb(5,0,0);stroke-width:0.48px;"/>
        </g>
        <g transform="matrix(0.491921,0,0,1.11959,650.931,-118.551)">
            <path d="M1277,618L1291,618" style="fill:none;stroke:rgb(5,0,0);stroke-width:0.48px;"/>
        </g>
        <g transform="matrix(0.777635,0,0,1.11959,284.073,-121.532)">
            <path d="M1277,618L1291,618" style="fill:none;stroke:rgb(5,0,0);stroke-width:0.43px;"/>
        </g>
        <g transform="matrix(0.491921,0,0,1.11959,650.931,-124.513)">
            <path d="M1277,618L1291,618" style="fill:none;stroke:rgb(5,0,0);stroke-width:0.48px;"/>
        </g>
        <g transform="matrix(0.491921,0,0,1.11959,650.931,-127.494)">
            <path d="M1277,618L1291,618" style="fill:none;stroke:rgb(5,0,0);stroke-width:0.48px;"/>
        </g>
        <g transform="matrix(0.491921,0,0,1.11959,650.931,-130.475)">
            <path d="M1277,618L1291,618" style="fill:none;stroke:rgb(5,0,0);stroke-width:0.48px;"/>
        </g>
        <g transform="matrix(0.491921,0,0,1.11959,650.931,-133.456)">
            <path d="M1277,618L1291,618" style="fill:none;stroke:rgb(5,0,0);stroke-width:0.48px;"/>
        </g>
        <g transform="matrix(1.11959,0,0,1.11959,-155.003,-166.246)">
            <path d="M1277,618L1291,618" style="fill:none;stroke:rgb(5,0,0);stroke-width:0.37px;"/>
        </g>
        <g transform="matrix(0.491921,0,0,1.11959,650.931,-139.418)">
            <path d="M1277,618L1291,618" style="fill:none;stroke:rgb(5,0,0);stroke-width:0.48px;"/>
        </g>
        <g transform="matrix(0.491921,0,0,1.11959,650.931,-142.398)">
            <path d="M1277,618L1291,618" style="fill:none;stroke:rgb(5,0,0);stroke-width:0.48px;"/>
        </g>
        <g transform="matrix(0.491921,0,0,1.11959,650.931,-145.379)">
            <path d="M1277,618L1291,618" style="fill:none;stroke:rgb(5,0,0);stroke-width:0.48px;"/>
        </g>
        <g transform="matrix(0.491921,0,0,1.11959,650.931,-148.36)">
            <path d="M1277,618L1291,618" style="fill:none;stroke:rgb(5,0,0);stroke-width:0.48px;"/>
        </g>
        <g transform="matrix(0.777635,0,0,1.11959,284.073,-151.341)">
            <path d="M1277,618L1291,618" style="fill:none;stroke:rgb(5,0,0);stroke-width:0.43px;"/>
        </g>
        <g transform="matrix(0.491921,0,0,1.11959,650.931,-154.322)">
            <path d="M1277,618L1291,618" style="fill:none;stroke:rgb(5,0,0);stroke-width:0.48px;"/>
        </g>
        <g transform="matrix(0.491921,0,0,1.11959,650.931,-157.303)">
            <path d="M1277,618L1291,618" style="fill:none;stroke:rgb(5,0,0);stroke-width:0.48px;"/>
        </g>
        <g transform="matrix(0.491921,0,0,1.11959,650.931,-160.284)">
            <path d="M1277,618L1291,618" style="fill:none;stroke:rgb(5,0,0);stroke-width:0.48px;"/>
        </g>
        <g transform="matrix(0.491921,0,0,1.11959,650.931,-163.265)">
            <path d="M1277,618L1291,618" style="fill:none;stroke:rgb(5,0,0);stroke-width:0.48px;"/>
        </g>
        <g transform="matrix(1.11959,0,0,1.11959,-155.003,-196.055)">
            <path d="M1277,618L1291,618" style="fill:none;stroke:rgb(5,0,0);stroke-width:0.37px;"/>
        </g>
        <g transform="matrix(0.491921,0,0,1.11959,650.931,-169.227)">
            <path d="M1277,618L1291,618" style="fill:none;stroke:rgb(5,0,0);stroke-width:0.48px;"/>
        </g>
        <g transform="matrix(0.491921,0,0,1.11959,650.931,-172.208)">
            <path d="M1277,618L1291,618" style="fill:none;stroke:rgb(5,0,0);stroke-width:0.48px;"/>
        </g>
        <g transform="matrix(0.491921,0,0,1.11959,650.931,-175.188)">
            <path d="M1277,618L1291,618" style="fill:none;stroke:rgb(5,0,0);stroke-width:0.48px;"/>
        </g>
        <g transform="matrix(0.491921,0,0,1.11959,650.931,-178.169)">
            <path d="M1277,618L1291,618" style="fill:none;stroke:rgb(5,0,0);stroke-width:0.48px;"/>
        </g>
        <g transform="matrix(0.777635,0,0,1.11959,284.073,-181.15)">
            <path d="M1277,618L1291,618" style="fill:none;stroke:rgb(5,0,0);stroke-width:0.43px;"/>
        </g>
        <g transform="matrix(0.491921,0,0,1.11959,650.931,-184.131)">
            <path d="M1277,618L1291,618" style="fill:none;stroke:rgb(5,0,0);stroke-width:0.48px;"/>
        </g>
        <g transform="matrix(0.491921,0,0,1.11959,650.931,-187.112)">
            <path d="M1277,618L1291,618" style="fill:none;stroke:rgb(5,0,0);stroke-width:0.48px;"/>
        </g>
        <g transform="matrix(0.491921,0,0,1.11959,650.931,-190.093)">
            <path d="M1277,618L1291,618" style="fill:none;stroke:rgb(5,0,0);stroke-width:0.48px;"/>
        </g>
        <g transform="matrix(0.491921,0,0,1.11959,650.931,-193.074)">
            <path d="M1277,618L1291,618" style="fill:none;stroke:rgb(5,0,0);stroke-width:0.48px;"/>
        </g>
        <g transform="matrix(1.11959,0,0,1.11959,-155.003,-225.864)">
            <path d="M1277,618L1291,618" style="fill:none;stroke:rgb(5,0,0);stroke-width:0.37px;"/>
        </g>
        <g transform="matrix(0.491921,0,0,1.11959,650.931,-199.036)">
            <path d="M1277,618L1291,618" style="fill:none;stroke:rgb(5,0,0);stroke-width:0.48px;"/>
        </g>
        <g transform="matrix(0.491921,0,0,1.11959,650.931,-202.017)">
            <path d="M1277,618L1291,618" style="fill:none;stroke:rgb(5,0,0);stroke-width:0.48px;"/>
        </g>
        <g transform="matrix(0.491921,0,0,1.11959,650.931,-204.998)">
            <path d="M1277,618L1291,618" style="fill:none;stroke:rgb(5,0,0);stroke-width:0.48px;"/>
        </g>
        <g transform="matrix(0.491921,0,0,1.11959,650.931,-207.978)">
            <path d="M1277,618L1291,618" style="fill:none;stroke:rgb(5,0,0);stroke-width:0.48px;"/>
        </g>
        <g transform="matrix(0.777635,0,0,1.11959,284.073,-210.959)">
            <path d="M1277,618L1291,618" style="fill:none;stroke:rgb(5,0,0);stroke-width:0.43px;"/>
        </g>
        <g transform="matrix(0.491921,0,0,1.11959,650.931,-213.94)">
            <path d="M1277,618L1291,618" style="fill:none;stroke:rgb(5,0,0);stroke-width:0.48px;"/>
        </g>
        <g transform="matrix(0.491921,0,0,1.11959,650.931,-216.921)">
            <path d="M1277,618L1291,618" style="fill:none;stroke:rgb(5,0,0);stroke-width:0.48px;"/>
        </g>
        <g transform="matrix(0.491921,0,0,1.11959,650.931,-219.902)">
            <path d="M1277,618L1291,618" style="fill:none;stroke:rgb(5,0,0);stroke-width:0.48px;"/>
        </g>
        <g transform="matrix(0.491921,0,0,1.11959,650.931,-222.883)">
            <path d="M1277,618L1291,618" style="fill:none;stroke:rgb(5,0,0);stroke-width:0.48px;"/>
        </g>
        <g transform="matrix(1.11959,0,0,1.11959,-155.003,-255.673)">
            <path d="M1277,618L1291,618" style="fill:none;stroke:rgb(5,0,0);stroke-width:0.37px;"/>
        </g>
        <g transform="matrix(0.491921,0,0,1.11959,650.931,-228.845)">
            <path d="M1277,618L1291,618" style="fill:none;stroke:rgb(5,0,0);stroke-width:0.48px;"/>
        </g>
        <g transform="matrix(0.491921,0,0,1.11959,650.931,-231.826)">
            <path d="M1277,618L1291,618" style="fill:none;stroke:rgb(5,0,0);stroke-width:0.48px;"/>
        </g>
        <g transform="matrix(0.491921,0,0,1.11959,650.931,-234.807)">
            <path d="M1277,618L1291,618" style="fill:none;stroke:rgb(5,0,0);stroke-width:0.48px;"/>
        </g>
        <g transform="matrix(0.491921,0,0,1.11959,650.931,-237.788)">
            <path d="M1277,618L1291,618" style="fill:none;stroke:rgb(5,0,0);stroke-width:0.48px;"/>
        </g>
        <g transform="matrix(0.777635,0,0,1.11959,284.073,-240.768)">
            <path d="M1277,618L1291,618" style="fill:none;stroke:rgb(5,0,0);stroke-width:0.43px;"/>
        </g>
        <g transform="matrix(0.491921,0,0,1.11959,650.931,-243.749)">
            <path d="M1277,618L1291,618" style="fill:none;stroke:rgb(5,0,0);stroke-width:0.48px;"/>
        </g>
        <g transform="matrix(0.491921,0,0,1.11959,650.931,-246.73)">
            <path d="M1277,618L1291,618" style="fill:none;stroke:rgb(5,0,0);stroke-width:0.48px;"/>
        </g>
        <g transform="matrix(0.491921,0,0,1.11959,650.931,-249.711)">
            <path d="M1277,618L1291,618" style="fill:none;stroke:rgb(5,0,0);stroke-width:0.48px;"/>
        </g>
        <g transform="matrix(0.491921,0,0,1.11959,650.931,-252.692)">
            <path d="M1277,618L1291,618" style="fill:none;stroke:rgb(5,0,0);stroke-width:0.48px;"/>
        </g>
        <g transform="matrix(1.11959,0,0,1.11959,-155.003,-285.482)">
            <path d="M1277,618L1291,618" style="fill:none;stroke:rgb(5,0,0);stroke-width:0.37px;"/>
        </g>
        <g transform="matrix(0.491921,0,0,1.11959,650.931,-258.654)">
            <path d="M1277,618L1291,618" style="fill:none;stroke:rgb(5,0,0);stroke-width:0.48px;"/>
        </g>
        <g transform="matrix(0.491921,0,0,1.11959,650.931,-261.635)">
            <path d="M1277,618L1291,618" style="fill:none;stroke:rgb(5,0,0);stroke-width:0.48px;"/>
        </g>
        <g transform="matrix(0.491921,0,0,1.11959,650.931,-264.616)">
            <path d="M1277,618L1291,618" style="fill:none;stroke:rgb(5,0,0);stroke-width:0.48px;"/>
        </g>
        <g transform="matrix(0.491921,0,0,1.11959,650.931,-267.597)">
            <path d="M1277,618L1291,618" style="fill:none;stroke:rgb(5,0,0);stroke-width:0.48px;"/>
        </g>
        <g transform="matrix(0.777635,0,0,1.11959,284.073,-270.578)">
            <path d="M1277,618L1291,618" style="fill:none;stroke:rgb(5,0,0);stroke-width:0.43px;"/>
        </g>
        <g transform="matrix(0.491921,0,0,1.11959,650.931,-273.558)">
            <path d="M1277,618L1291,618" style="fill:none;stroke:rgb(5,0,0);stroke-width:0.48px;"/>
        </g>
        <g transform="matrix(0.491921,0,0,1.11959,650.931,-276.539)">
            <path d="M1277,618L1291,618" style="fill:none;stroke:rgb(5,0,0);stroke-width:0.48px;"/>
        </g>
        <g transform="matrix(0.491921,0,0,1.11959,650.931,-279.52)">
            <path d="M1277,618L1291,618" style="fill:none;stroke:rgb(5,0,0);stroke-width:0.48px;"/>
        </g>
        <g transform="matrix(0.491921,0,0,1.11959,650.931,-282.501)">
            <path d="M1277,618L1291,618" style="fill:none;stroke:rgb(5,0,0);stroke-width:0.48px;"/>
        </g>
        <g transform="matrix(1.11959,0,0,1.11959,-155.003,-315.291)">
            <path d="M1277,618L1291,618" style="fill:none;stroke:rgb(5,0,0);stroke-width:0.37px;"/>
        </g>
        <g transform="matrix(0.491921,0,0,1.11959,650.931,-288.463)">
            <path d="M1277,618L1291,618" style="fill:none;stroke:rgb(5,0,0);stroke-width:0.48px;"/>
        </g>
        <g transform="matrix(0.491921,0,0,1.11959,650.931,-291.444)">
            <path d="M1277,618L1291,618" style="fill:none;stroke:rgb(5,0,0);stroke-width:0.48px;"/>
        </g>
        <g transform="matrix(0.491921,0,0,1.11959,650.931,-294.425)">
            <path d="M1277,618L1291,618" style="fill:none;stroke:rgb(5,0,0);stroke-width:0.48px;"/>
        </g>
        <g transform="matrix(0.491921,0,0,1.11959,650.931,-297.406)">
            <path d="M1277,618L1291,618" style="fill:none;stroke:rgb(5,0,0);stroke-width:0.48px;"/>
        </g>
        <g transform="matrix(0.777635,0,0,1.11959,284.073,-300.387)">
            <path d="M1277,618L1291,618" style="fill:none;stroke:rgb(5,0,0);stroke-width:0.43px;"/>
        </g>
        <g transform="matrix(0.491921,0,0,1.11959,650.931,-303.368)">
            <path d="M1277,618L1291,618" style="fill:none;stroke:rgb(5,0,0);stroke-width:0.48px;"/>
        </g>
        <g transform="matrix(0.491921,0,0,1.11959,650.931,-306.348)">
            <path d="M1277,618L1291,618" style="fill:none;stroke:rgb(5,0,0);stroke-width:0.48px;"/>
        </g>
        <g transform="matrix(0.491921,0,0,1.11959,650.931,-309.329)">
            <path d="M1277,618L1291,618" style="fill:none;stroke:rgb(5,0,0);stroke-width:0.48px;"/>
        </g>
        <g transform="matrix(0.491921,0,0,1.11959,650.931,-312.31)">
            <path d="M1277,618L1291,618" style="fill:none;stroke:rgb(5,0,0);stroke-width:0.48px;"/>
        </g>
        <g transform="matrix(1.11959,0,0,1.11959,-155.003,-345.1)">
            <path d="M1277,618L1291,618" style="fill:none;stroke:rgb(5,0,0);stroke-width:0.37px;"/>
        </g>
        <g transform="matrix(0.491921,0,0,1.11959,650.931,-318.272)">
            <path d="M1277,618L1291,618" style="fill:none;stroke:rgb(5,0,0);stroke-width:0.48px;"/>
        </g>
        <g transform="matrix(0.491921,0,0,1.11959,650.931,-321.253)">
            <path d="M1277,618L1291,618" style="fill:none;stroke:rgb(5,0,0);stroke-width:0.48px;"/>
        </g>
        <g transform="matrix(0.491921,0,0,1.11959,650.931,-324.234)">
            <path d="M1277,618L1291,618" style="fill:none;stroke:rgb(5,0,0);stroke-width:0.48px;"/>
        </g>
        <g transform="matrix(0.491921,0,0,1.11959,650.931,-327.215)">
            <path d="M1277,618L1291,618" style="fill:none;stroke:rgb(5,0,0);stroke-width:0.48px;"/>
        </g>
        <g transform="matrix(0.777635,0,0,1.11959,284.073,-330.196)">
            <path d="M1277,618L1291,618" style="fill:none;stroke:rgb(5,0,0);stroke-width:0.43px;"/>
        </g>
        <g transform="matrix(0.491921,0,0,1.11959,650.931,-333.177)">
            <path d="M1277,618L1291,618" style="fill:none;stroke:rgb(5,0,0);stroke-width:0.48px;"/>
        </g>
        <g transform="matrix(0.491921,0,0,1.11959,650.931,-336.158)">
            <path d="M1277,618L1291,618" style="fill:none;stroke:rgb(5,0,0);stroke-width:0.48px;"/>
        </g>
        <g transform="matrix(0.491921,0,0,1.11959,650.931,-339.138)">
            <path d="M1277,618L1291,618" style="fill:none;stroke:rgb(5,0,0);stroke-width:0.48px;"/>
        </g>
        <g transform="matrix(0.491921,0,0,1.11959,650.931,-342.119)">
            <path d="M1277,618L1291,618" style="fill:none;stroke:rgb(5,0,0);stroke-width:0.48px;"/>
        </g>
        <g transform="matrix(1.11959,0,0,1.11959,-155.003,-374.909)">
            <path d="M1277,618L1291,618" style="fill:none;stroke:rgb(5,0,0);stroke-width:0.37px;"/>
        </g>
        <g transform="matrix(0.491921,0,0,1.11959,650.931,-348.081)">
            <path d="M1277,618L1291,618" style="fill:none;stroke:rgb(5,0,0);stroke-width:0.48px;"/>
        </g>
        <g transform="matrix(0.491921,0,0,1.11959,650.931,-351.062)">
            <path d="M1277,618L1291,618" style="fill:none;stroke:rgb(5,0,0);stroke-width:0.48px;"/>
        </g>
        <g transform="matrix(0.491921,0,0,1.11959,650.931,-354.043)">
            <path d="M1277,618L1291,618" style="fill:none;stroke:rgb(5,0,0);stroke-width:0.48px;"/>
        </g>
        <g transform="matrix(0.491921,0,0,1.11959,650.931,-357.024)">
            <path d="M1277,618L1291,618" style="fill:none;stroke:rgb(5,0,0);stroke-width:0.48px;"/>
        </g>
        <g transform="matrix(0.777635,0,0,1.11959,284.073,-360.005)">
            <path d="M1277,618L1291,618" style="fill:none;stroke:rgb(5,0,0);stroke-width:0.43px;"/>
        </g>
        <g transform="matrix(0.491921,0,0,1.11959,650.931,-362.986)">
            <path d="M1277,618L1291,618" style="fill:none;stroke:rgb(5,0,0);stroke-width:0.48px;"/>
        </g>
        <g transform="matrix(0.491921,0,0,1.11959,650.931,-365.967)">
            <path d="M1277,618L1291,618" style="fill:none;stroke:rgb(5,0,0);stroke-width:0.48px;"/>
        </g>
        <g transform="matrix(0.491921,0,0,1.11959,650.931,-368.948)">
            <path d="M1277,618L1291,618" style="fill:none;stroke:rgb(5,0,0);stroke-width:0.48px;"/>
        </g>
        <g transform="matrix(0.491921,0,0,1.11959,650.931,-371.928)">
            <path d="M1277,618L1291,618" style="fill:none;stroke:rgb(5,0,0);stroke-width:0.48px;"/>
        </g>
        <g transform="matrix(1,0,0,1.43142,0,-322.422)">
            <path d="M1302.79,742.366L1262.21,743.882L1262.21,751.244L1302.8,752.76L1302.79,742.366Z" style="fill:rgb(190,189,189);fill-opacity:0.51;stroke:rgb(5,0,0);stroke-width:0.34px;"/>
        </g>
    </g>
</svg>
