<?xml version="1.0" encoding="UTF-8" standalone="no"?>
<!DOCTYPE svg PUBLIC "-//W3C//DTD SVG 1.1//EN" "http://www.w3.org/Graphics/SVG/1.1/DTD/svg11.dtd">
<svg width="100%" height="100%" viewBox="0 0 285 310" version="1.1" xmlns="http://www.w3.org/2000/svg" xmlns:xlink="http://www.w3.org/1999/xlink" xml:space="preserve" xmlns:serif="http://www.serif.com/" style="fill-rule:evenodd;clip-rule:evenodd;stroke-linecap:round;stroke-linejoin:round;stroke-miterlimit:1.5;">
    <g transform="matrix(1,0,0,1,-268.09,-554.648)">
        <g transform="matrix(1,0,0,1,-452.898,357.904)">
            <g transform="matrix(0.6431,0,0,0.61833,412.527,-245.799)">
                <g transform="matrix(0.45355,0,0,0.412982,279.192,560.258)">
                    <path d="M462.272,478.355C496.566,479.013 534.697,527.499 534.697,541.238L534.697,1434.96L534.774,1434.97C534.774,1514.4 719.796,1578.88 947.691,1578.88C1175.59,1578.88 1360.61,1514.4 1360.61,1434.97L1360.53,1434.96L1360.53,498.202C1360.53,485.246 1380.65,447.655 1399.66,434.13" style="fill:url(#_Linear1);stroke:black;stroke-width:15.2px;"/>
                </g>
                <g transform="matrix(0.45355,0,0,0.412982,279.192,560.258)">
                    <path d="M534.697,805.175L534.697,1434.96L534.774,1434.97C534.774,1514.4 719.796,1578.88 947.691,1578.88C1175.59,1578.88 1360.61,1514.4 1360.61,1434.97L1360.53,1434.96L1360.53,771.497" style="fill:url(#_Linear2);stroke:black;stroke-width:15.2px;"/>
                </g>
                <g transform="matrix(0.45355,0,0,0.412982,279.192,560.258)">
                    <path d="M1400.15,433.728C1397.1,437.032 1392.92,441.666 1360.53,445.886C1091.81,480.899 812.187,478.311 534.697,445.886C534.697,445.886 534.912,445.879 531.942,445.979C505.286,445.979 484.593,454.602 463.3,477.25C462.958,477.615 462.615,477.983 462.272,478.355L459.11,478.816C463.783,464.407 489.411,430.299 535.153,421.151C739.966,380.189 1272.98,395.533 1380.41,422.591C1395.32,426.348 1403.59,429.655 1400.08,433.743L1400.15,433.728Z" style="fill:url(#_Linear3);stroke:black;stroke-width:36.48px;"/>
                </g>
            </g>
            <g transform="matrix(1.04446,0,0,0.780072,-89.9952,-23.8791)">
                <ellipse cx="917.982" cy="372.204" rx="107.428" ry="12.295" style="fill:url(#_Linear4);"/>
            </g>
            <g transform="matrix(1,0,0,1.07569,-315.475,-176.918)">
                <path d="M1071.99,592.505L1071.99,412.813L1072.01,412.813C1071.99,412.878 1071.99,412.944 1071.99,413.01C1071.99,418.304 1122.26,422.601 1184.19,422.601C1246.12,422.601 1296.39,418.304 1296.39,413.01C1296.39,412.944 1296.39,412.878 1296.37,412.813L1296.39,412.813L1296.39,593.048C1296.39,593.048 1291.5,623.395 1184.96,623.395C1077.92,623.395 1071.9,592.66 1071.99,592.505Z" style="fill:url(#_Linear5);"/>
            </g>
        </g>
        <g transform="matrix(1.18287,0,0,1.21792,76.4856,290.392)">
            <path d="M288.509,430.288C337.386,430.288 377.069,436.48 377.069,444.107C377.069,451.734 336.855,460.961 287.978,460.961C239.101,460.961 199.95,451.734 199.95,444.107C199.95,436.48 239.632,430.288 288.509,430.288Z" style="fill:url(#_Radial6);"/>
        </g>
    </g>
    <defs>
        <linearGradient id="_Linear1" x1="0" y1="0" x2="1" y2="0" gradientUnits="userSpaceOnUse" gradientTransform="matrix(794.65,0,0,907.67,546.437,891.626)"><stop offset="0" style="stop-color:rgb(178,178,178);stop-opacity:1"/><stop offset="0.09" style="stop-color:rgb(208,208,208);stop-opacity:1"/><stop offset="0.2" style="stop-color:rgb(238,238,238);stop-opacity:1"/><stop offset="0.47" style="stop-color:rgb(252,252,252);stop-opacity:1"/><stop offset="0.79" style="stop-color:rgb(238,238,238);stop-opacity:1"/><stop offset="0.9" style="stop-color:rgb(208,208,208);stop-opacity:1"/><stop offset="1" style="stop-color:rgb(177,177,177);stop-opacity:1"/></linearGradient>
        <linearGradient id="_Linear2" x1="0" y1="0" x2="1" y2="0" gradientUnits="userSpaceOnUse" gradientTransform="matrix(794.65,0,0,907.67,546.437,891.626)"><stop offset="0" style="stop-color:rgb(178,178,178);stop-opacity:1"/><stop offset="0.09" style="stop-color:rgb(208,208,208);stop-opacity:1"/><stop offset="0.2" style="stop-color:rgb(238,238,238);stop-opacity:1"/><stop offset="0.47" style="stop-color:rgb(252,252,252);stop-opacity:1"/><stop offset="0.79" style="stop-color:rgb(238,238,238);stop-opacity:1"/><stop offset="0.9" style="stop-color:rgb(208,208,208);stop-opacity:1"/><stop offset="1" style="stop-color:rgb(177,177,177);stop-opacity:1"/></linearGradient>
        <linearGradient id="_Linear3" x1="0" y1="0" x2="1" y2="0" gradientUnits="userSpaceOnUse" gradientTransform="matrix(794.65,0,0,907.67,546.437,891.626)"><stop offset="0" style="stop-color:rgb(178,178,178);stop-opacity:1"/><stop offset="0.09" style="stop-color:rgb(208,208,208);stop-opacity:1"/><stop offset="0.2" style="stop-color:rgb(238,238,238);stop-opacity:1"/><stop offset="0.47" style="stop-color:rgb(252,252,252);stop-opacity:1"/><stop offset="0.79" style="stop-color:rgb(238,238,238);stop-opacity:1"/><stop offset="0.9" style="stop-color:rgb(208,208,208);stop-opacity:1"/><stop offset="1" style="stop-color:rgb(177,177,177);stop-opacity:1"/></linearGradient>
        <linearGradient id="_Linear4" x1="0" y1="0" x2="1" y2="0" gradientUnits="userSpaceOnUse" gradientTransform="matrix(221.915,0,0,297.129,805.636,451.483)"><stop offset="0" style="stop-color:rgb(178,178,178);stop-opacity:1"/><stop offset="0.09" style="stop-color:rgb(208,208,208);stop-opacity:1"/><stop offset="0.2" style="stop-color:rgb(238,238,238);stop-opacity:1"/><stop offset="0.47" style="stop-color:rgb(252,252,252);stop-opacity:1"/><stop offset="0.79" style="stop-color:rgb(238,238,238);stop-opacity:1"/><stop offset="0.9" style="stop-color:rgb(208,208,208);stop-opacity:1"/><stop offset="1" style="stop-color:rgb(177,177,177);stop-opacity:1"/></linearGradient>
        <linearGradient id="_Linear5" x1="0" y1="0" x2="1" y2="0" gradientUnits="userSpaceOnUse" gradientTransform="matrix(231.782,0,0,215.472,1066.93,469.678)"><stop offset="0" style="stop-color:rgb(178,178,178);stop-opacity:1"/><stop offset="0.09" style="stop-color:rgb(208,208,208);stop-opacity:1"/><stop offset="0.2" style="stop-color:rgb(238,238,238);stop-opacity:1"/><stop offset="0.47" style="stop-color:rgb(252,252,252);stop-opacity:1"/><stop offset="0.79" style="stop-color:rgb(238,238,238);stop-opacity:1"/><stop offset="0.9" style="stop-color:rgb(208,208,208);stop-opacity:1"/><stop offset="1" style="stop-color:rgb(177,177,177);stop-opacity:1"/></linearGradient>
        <radialGradient id="_Radial6" cx="0" cy="0" r="1" gradientUnits="userSpaceOnUse" gradientTransform="matrix(194.774,-6.19673,8.88549,135.835,288.509,445.625)"><stop offset="0" style="stop-color:rgb(191,191,191);stop-opacity:0.28"/><stop offset="1" style="stop-color:rgb(128,128,128);stop-opacity:0.28"/></radialGradient>
    </defs>
</svg>
