<?xml version="1.0" encoding="UTF-8" standalone="no"?>
<!DOCTYPE svg PUBLIC "-//W3C//DTD SVG 1.1//EN" "http://www.w3.org/Graphics/SVG/1.1/DTD/svg11.dtd">
<svg width="100%" height="100%" viewBox="0 0 296 296" version="1.1" xmlns="http://www.w3.org/2000/svg" xmlns:xlink="http://www.w3.org/1999/xlink" xml:space="preserve" xmlns:serif="http://www.serif.com/" style="fill-rule:evenodd;clip-rule:evenodd;stroke-linecap:round;stroke-linejoin:round;stroke-miterlimit:1.5;">
    <g transform="matrix(1,0,0,1,-1105.58,-471.154)">
        <g transform="matrix(1,0,0,1,308.862,61.5)">
            <g transform="matrix(0.815678,0,0,0.815678,593.011,114.587)">
                <rect x="250" y="362" width="362" height="362" style="fill:none;stroke:black;stroke-width:0.51px;"/>
            </g>
            <g transform="matrix(1.00355,0,0,1.00355,538.633,34.1481)">
                <circle cx="404.5" cy="521.5" r="76.5" style="fill:none;stroke:black;stroke-width:0.42px;"/>
            </g>
            <g transform="matrix(0.694766,0,0,0.694766,663.536,195.179)">
                <circle cx="404.5" cy="521.5" r="76.5" style="fill:none;stroke:black;stroke-width:0.6px;"/>
            </g>
            <g transform="matrix(1.31234,0,0,1.31234,413.729,-126.883)">
                <circle cx="404.5" cy="521.5" r="76.5" style="fill:none;stroke:black;stroke-width:0.32px;"/>
            </g>
            <g transform="matrix(1.62112,0,0,1.62112,288.825,-287.915)">
                <circle cx="404.5" cy="521.5" r="76.5" style="fill:none;stroke:black;stroke-width:0.26px;"/>
            </g>
            <g transform="matrix(0.0906284,0,0,0.0906284,854.732,510.237)">
                <circle cx="404.5" cy="521.5" r="76.5" style="fill:white;stroke:black;stroke-width:11.03px;"/>
            </g>
            <g transform="matrix(0.0906284,0,0,0.0906284,831.145,510.237)">
                <circle cx="404.5" cy="521.5" r="76.5" style="fill:white;stroke:black;stroke-width:11.03px;"/>
            </g>
            <g transform="matrix(0.0906284,0,0,0.0906284,807.503,510.237)">
                <circle cx="404.5" cy="521.5" r="76.5" style="fill:white;stroke:black;stroke-width:11.03px;"/>
            </g>
            <g transform="matrix(0.0906284,0,0,0.0906284,783.881,510.237)">
                <circle cx="404.5" cy="521.5" r="76.5" style="fill:white;stroke:black;stroke-width:11.03px;"/>
            </g>
            <g transform="matrix(0.0906284,0,0,0.0906284,1031.93,510.237)">
                <circle cx="404.5" cy="521.5" r="76.5" style="fill:white;stroke:black;stroke-width:11.03px;"/>
            </g>
            <g transform="matrix(0.0640839,-0.0640839,0.0640839,0.0640839,797.524,637.7)">
                <circle cx="404.5" cy="521.5" r="76.5" style="fill:white;stroke:black;stroke-width:11.03px;"/>
            </g>
            <g transform="matrix(0.0640839,-0.0640839,0.0640839,0.0640839,972.919,462.305)">
                <circle cx="404.5" cy="521.5" r="76.5" style="fill:white;stroke:black;stroke-width:11.03px;"/>
            </g>
            <g transform="matrix(0,-0.0906284,0.0906284,0,897.301,718.182)">
                <circle cx="404.5" cy="521.5" r="76.5" style="fill:white;stroke:black;stroke-width:11.03px;"/>
            </g>
            <g transform="matrix(0,-0.0906284,0.0906284,0,897.301,470.136)">
                <circle cx="404.5" cy="521.5" r="76.5" style="fill:white;stroke:black;stroke-width:11.03px;"/>
            </g>
            <g transform="matrix(-0.0640839,-0.0640839,0.0640839,-0.0640839,1024.76,704.539)">
                <circle cx="404.5" cy="521.5" r="76.5" style="fill:white;stroke:black;stroke-width:11.03px;"/>
            </g>
            <g transform="matrix(-0.0640839,-0.0640839,0.0640839,-0.0640839,849.368,529.144)">
                <circle cx="404.5" cy="521.5" r="76.5" style="fill:white;stroke:black;stroke-width:11.03px;"/>
            </g>
            <g transform="matrix(0.0906284,0,0,0.0906284,1008.28,510.237)">
                <circle cx="404.5" cy="521.5" r="76.5" style="fill:white;stroke:black;stroke-width:11.03px;"/>
            </g>
            <g transform="matrix(0.0906284,0,0,0.0906284,1031.96,510.237)">
                <circle cx="404.5" cy="521.5" r="76.5" style="fill:white;stroke:black;stroke-width:11.03px;"/>
            </g>
            <g transform="matrix(0.0640839,-0.0640839,0.0640839,0.0640839,814.224,620.989)">
                <circle cx="404.5" cy="521.5" r="76.5" style="fill:white;stroke:black;stroke-width:11.03px;"/>
            </g>
            <g transform="matrix(0.0640839,-0.0640839,0.0640839,0.0640839,956.198,479.015)">
                <circle cx="404.5" cy="521.5" r="76.5" style="fill:white;stroke:black;stroke-width:11.03px;"/>
            </g>
            <g transform="matrix(0,-0.0906284,0.0906284,0,897.29,694.55)">
                <circle cx="404.5" cy="521.5" r="76.5" style="fill:white;stroke:black;stroke-width:11.03px;"/>
            </g>
            <g transform="matrix(0,-0.0906284,0.0906284,0,897.29,493.768)">
                <circle cx="404.5" cy="521.5" r="76.5" style="fill:white;stroke:black;stroke-width:11.03px;"/>
            </g>
            <g transform="matrix(-0.0640839,-0.0640839,0.0640839,-0.0640839,1008.04,687.829)">
                <circle cx="404.5" cy="521.5" r="76.5" style="fill:white;stroke:black;stroke-width:11.03px;"/>
            </g>
            <g transform="matrix(-0.0640839,-0.0640839,0.0640839,-0.0640839,866.068,545.855)">
                <circle cx="404.5" cy="521.5" r="76.5" style="fill:white;stroke:black;stroke-width:11.03px;"/>
            </g>
            <g transform="matrix(0.0906284,0,0,0.0906284,961.041,510.237)">
                <circle cx="404.5" cy="521.5" r="76.5" style="fill:white;stroke:black;stroke-width:11.03px;"/>
            </g>
            <g transform="matrix(5.54939e-18,-0.0906284,0.0906284,5.54939e-18,897.283,647.314)">
                <circle cx="404.5" cy="521.5" r="76.5" style="fill:white;stroke:black;stroke-width:11.03px;"/>
            </g>
            <g transform="matrix(5.54939e-18,-0.0906284,0.0906284,5.54939e-18,897.283,541.004)">
                <circle cx="404.5" cy="521.5" r="76.5" style="fill:white;stroke:black;stroke-width:11.03px;"/>
            </g>
            <g transform="matrix(-0.0640839,-0.0640839,0.0640839,-0.0640839,974.634,654.428)">
                <circle cx="404.5" cy="521.5" r="76.5" style="fill:white;stroke:black;stroke-width:11.03px;"/>
            </g>
            <g transform="matrix(-0.0640839,-0.0640839,0.0640839,-0.0640839,899.462,579.256)">
                <circle cx="404.5" cy="521.5" r="76.5" style="fill:white;stroke:black;stroke-width:11.03px;"/>
            </g>
            <g transform="matrix(-0.0640839,0.0640839,-0.0640839,-0.0640839,1041.47,527.412)">
                <circle cx="404.5" cy="521.5" r="76.5" style="fill:white;stroke:black;stroke-width:11.03px;"/>
            </g>
            <g transform="matrix(-0.0640839,0.0640839,-0.0640839,-0.0640839,966.301,602.584)">
                <circle cx="404.5" cy="521.5" r="76.5" style="fill:white;stroke:black;stroke-width:11.03px;"/>
            </g>
            <g transform="matrix(0.0906284,0,0,0.0906284,984.686,510.237)">
                <circle cx="404.5" cy="521.5" r="76.5" style="fill:white;stroke:black;stroke-width:11.03px;"/>
            </g>
            <g transform="matrix(5.54939e-18,-0.0906284,0.0906284,5.54939e-18,897.307,670.924)">
                <circle cx="404.5" cy="521.5" r="76.5" style="fill:white;stroke:black;stroke-width:11.03px;"/>
            </g>
            <g transform="matrix(5.54939e-18,-0.0906284,0.0906284,5.54939e-18,897.307,517.394)">
                <circle cx="404.5" cy="521.5" r="76.5" style="fill:white;stroke:black;stroke-width:11.03px;"/>
            </g>
            <g transform="matrix(-0.0640839,-0.0640839,0.0640839,-0.0640839,991.353,671.123)">
                <circle cx="404.5" cy="521.5" r="76.5" style="fill:white;stroke:black;stroke-width:11.03px;"/>
            </g>
            <g transform="matrix(-0.0640839,-0.0640839,0.0640839,-0.0640839,882.791,562.561)">
                <circle cx="404.5" cy="521.5" r="76.5" style="fill:white;stroke:black;stroke-width:11.03px;"/>
            </g>
            <g transform="matrix(-0.0640839,0.0640839,-0.0640839,-0.0640839,1058.19,510.717)">
                <circle cx="404.5" cy="521.5" r="76.5" style="fill:white;stroke:black;stroke-width:11.03px;"/>
            </g>
            <g transform="matrix(-0.0640839,0.0640839,-0.0640839,-0.0640839,949.63,619.279)">
                <circle cx="404.5" cy="521.5" r="76.5" style="fill:white;stroke:black;stroke-width:11.03px;"/>
            </g>
        </g>
    </g>
</svg>
