<?xml version="1.0" encoding="UTF-8" standalone="no"?>
<!DOCTYPE svg PUBLIC "-//W3C//DTD SVG 1.1//EN" "http://www.w3.org/Graphics/SVG/1.1/DTD/svg11.dtd">
<svg width="100%" height="100%" viewBox="0 0 296 296" version="1.1" xmlns="http://www.w3.org/2000/svg" xmlns:xlink="http://www.w3.org/1999/xlink" xml:space="preserve" xmlns:serif="http://www.serif.com/" style="fill-rule:evenodd;clip-rule:evenodd;stroke-linecap:round;stroke-linejoin:round;stroke-miterlimit:1.5;">
    <g transform="matrix(1,0,0,1,-1834.52,-471.154)">
        <g transform="matrix(1,0,0,1,308.862,61.5)">
            <g transform="matrix(0.815678,0,0,0.815678,1321.94,114.587)">
                <rect x="250" y="362" width="362" height="362" style="fill:none;stroke:black;stroke-width:0.51px;"/>
            </g>
            <g transform="matrix(1.00355,0,0,1.00355,1267.56,34.1481)">
                <circle cx="404.5" cy="521.5" r="76.5" style="fill:none;stroke:black;stroke-width:0.42px;"/>
            </g>
            <g transform="matrix(0.694766,0,0,0.694766,1392.47,195.179)">
                <circle cx="404.5" cy="521.5" r="76.5" style="fill:none;stroke:black;stroke-width:0.6px;"/>
            </g>
            <g transform="matrix(1.31234,0,0,1.31234,1142.66,-126.883)">
                <circle cx="404.5" cy="521.5" r="76.5" style="fill:none;stroke:black;stroke-width:0.32px;"/>
            </g>
            <g transform="matrix(1.62112,0,0,1.62112,1017.76,-287.915)">
                <circle cx="404.5" cy="521.5" r="76.5" style="fill:none;stroke:black;stroke-width:0.26px;"/>
            </g>
            <g transform="matrix(0.0906284,0,0,0.0906284,1583.66,510.237)">
                <circle cx="404.5" cy="521.5" r="76.5" style="fill:white;stroke:black;stroke-width:11.03px;"/>
            </g>
            <g transform="matrix(0.0906284,0,0,0.0906284,1560.08,510.237)">
                <circle cx="404.5" cy="521.5" r="76.5" style="fill:white;stroke:black;stroke-width:11.03px;"/>
            </g>
            <g transform="matrix(0.0906284,0,0,0.0906284,1536.43,510.237)">
                <circle cx="404.5" cy="521.5" r="76.5" style="fill:white;stroke:black;stroke-width:11.03px;"/>
            </g>
            <g transform="matrix(0.0906284,0,0,0.0906284,1512.81,510.237)">
                <circle cx="404.5" cy="521.5" r="76.5" style="fill:white;stroke:black;stroke-width:11.03px;"/>
            </g>
            <g transform="matrix(0.0906284,0,0,0.0906284,1760.86,510.237)">
                <circle cx="404.5" cy="521.5" r="76.5" style="fill:white;stroke:black;stroke-width:11.03px;"/>
            </g>
            <g transform="matrix(0.0640839,-0.0640839,0.0640839,0.0640839,1526.46,637.7)">
                <circle cx="404.5" cy="521.5" r="76.5" style="fill:white;stroke:black;stroke-width:11.03px;"/>
            </g>
            <g transform="matrix(0.0640839,-0.0640839,0.0640839,0.0640839,1701.85,462.305)">
                <circle cx="404.5" cy="521.5" r="76.5" style="fill:white;stroke:black;stroke-width:11.03px;"/>
            </g>
            <g transform="matrix(0,-0.0906284,0.0906284,0,1626.23,718.182)">
                <circle cx="404.5" cy="521.5" r="76.5" style="fill:white;stroke:black;stroke-width:11.03px;"/>
            </g>
            <g transform="matrix(0,-0.0906284,0.0906284,0,1626.23,470.136)">
                <circle cx="404.5" cy="521.5" r="76.5" style="fill:white;stroke:black;stroke-width:11.03px;"/>
            </g>
            <g transform="matrix(-0.0640839,-0.0640839,0.0640839,-0.0640839,1753.69,704.539)">
                <circle cx="404.5" cy="521.5" r="76.5" style="fill:white;stroke:black;stroke-width:11.03px;"/>
            </g>
            <g transform="matrix(-0.0640839,-0.0640839,0.0640839,-0.0640839,1578.3,529.144)">
                <circle cx="404.5" cy="521.5" r="76.5" style="fill:white;stroke:black;stroke-width:11.03px;"/>
            </g>
            <g transform="matrix(0.0906284,0,0,0.0906284,1737.22,510.237)">
                <circle cx="404.5" cy="521.5" r="76.5" style="fill:white;stroke:black;stroke-width:11.03px;"/>
            </g>
            <g transform="matrix(0.0906284,0,0,0.0906284,1760.89,510.237)">
                <circle cx="404.5" cy="521.5" r="76.5" style="fill:white;stroke:black;stroke-width:11.03px;"/>
            </g>
            <g transform="matrix(0.0640839,-0.0640839,0.0640839,0.0640839,1543.16,620.989)">
                <circle cx="404.5" cy="521.5" r="76.5" style="fill:white;stroke:black;stroke-width:11.03px;"/>
            </g>
            <g transform="matrix(0.0640839,-0.0640839,0.0640839,0.0640839,1685.13,479.015)">
                <circle cx="404.5" cy="521.5" r="76.5" style="fill:white;stroke:black;stroke-width:11.03px;"/>
            </g>
            <g transform="matrix(0,-0.0906284,0.0906284,0,1626.22,694.55)">
                <circle cx="404.5" cy="521.5" r="76.5" style="fill:white;stroke:black;stroke-width:11.03px;"/>
            </g>
            <g transform="matrix(0,-0.0906284,0.0906284,0,1626.22,493.768)">
                <circle cx="404.5" cy="521.5" r="76.5" style="fill:white;stroke:black;stroke-width:11.03px;"/>
            </g>
            <g transform="matrix(-0.0640839,-0.0640839,0.0640839,-0.0640839,1736.97,687.829)">
                <circle cx="404.5" cy="521.5" r="76.5" style="fill:white;stroke:black;stroke-width:11.03px;"/>
            </g>
            <g transform="matrix(-0.0640839,-0.0640839,0.0640839,-0.0640839,1595,545.855)">
                <circle cx="404.5" cy="521.5" r="76.5" style="fill:white;stroke:black;stroke-width:11.03px;"/>
            </g>
            <g transform="matrix(0.0906284,0,0,0.0906284,1689.97,510.237)">
                <circle cx="404.5" cy="521.5" r="76.5" style="fill:white;stroke:black;stroke-width:11.03px;"/>
            </g>
            <g transform="matrix(0.0640839,-0.0640839,0.0640839,0.0640839,1576.55,587.588)">
                <circle cx="404.5" cy="521.5" r="76.5" style="fill:white;stroke:black;stroke-width:11.03px;"/>
            </g>
            <g transform="matrix(0.0640839,-0.0640839,0.0640839,0.0640839,1651.72,512.416)">
                <circle cx="404.5" cy="521.5" r="76.5" style="fill:white;stroke:black;stroke-width:11.03px;"/>
            </g>
            <g transform="matrix(-0.0640839,-0.0640839,0.0640839,-0.0640839,1703.57,654.428)">
                <circle cx="404.5" cy="521.5" r="76.5" style="fill:white;stroke:black;stroke-width:11.03px;"/>
            </g>
            <g transform="matrix(-0.0640839,-0.0640839,0.0640839,-0.0640839,1628.39,579.256)">
                <circle cx="404.5" cy="521.5" r="76.5" style="fill:white;stroke:black;stroke-width:11.03px;"/>
            </g>
            <g transform="matrix(5.54939e-18,-0.0906284,0.0906284,5.54939e-18,1626.21,647.314)">
                <circle cx="404.5" cy="521.5" r="76.5" style="fill:white;stroke:black;stroke-width:11.03px;"/>
            </g>
            <g transform="matrix(5.54939e-18,-0.0906284,0.0906284,5.54939e-18,1626.21,541.004)">
                <circle cx="404.5" cy="521.5" r="76.5" style="fill:white;stroke:black;stroke-width:11.03px;"/>
            </g>
            <g transform="matrix(0.0906284,0,0,0.0906284,1713.62,510.237)">
                <circle cx="404.5" cy="521.5" r="76.5" style="fill:white;stroke:black;stroke-width:11.03px;"/>
            </g>
            <g transform="matrix(5.54939e-18,-0.0906284,0.0906284,5.54939e-18,1626.24,670.924)">
                <circle cx="404.5" cy="521.5" r="76.5" style="fill:white;stroke:black;stroke-width:11.03px;"/>
            </g>
            <g transform="matrix(5.54939e-18,-0.0906284,0.0906284,5.54939e-18,1626.24,517.394)">
                <circle cx="404.5" cy="521.5" r="76.5" style="fill:white;stroke:black;stroke-width:11.03px;"/>
            </g>
            <g transform="matrix(-0.0640839,-0.0640839,0.0640839,-0.0640839,1720.28,671.123)">
                <circle cx="404.5" cy="521.5" r="76.5" style="fill:white;stroke:black;stroke-width:11.03px;"/>
            </g>
            <g transform="matrix(-0.0640839,-0.0640839,0.0640839,-0.0640839,1611.72,562.561)">
                <circle cx="404.5" cy="521.5" r="76.5" style="fill:white;stroke:black;stroke-width:11.03px;"/>
            </g>
            <g transform="matrix(-0.0640839,0.0640839,-0.0640839,-0.0640839,1787.12,510.717)">
                <circle cx="404.5" cy="521.5" r="76.5" style="fill:white;stroke:black;stroke-width:11.03px;"/>
            </g>
            <g transform="matrix(-0.0640839,0.0640839,-0.0640839,-0.0640839,1678.56,619.279)">
                <circle cx="404.5" cy="521.5" r="76.5" style="fill:white;stroke:black;stroke-width:11.03px;"/>
            </g>
            <g transform="matrix(0.463177,0,0,0.463177,1486.14,315.953)">
                <circle cx="404.5" cy="521.5" r="76.5" style="fill:white;stroke:black;stroke-width:2.7px;"/>
            </g>
        </g>
    </g>
</svg>
