<?xml version="1.0" encoding="UTF-8" standalone="no"?>
<!DOCTYPE svg PUBLIC "-//W3C//DTD SVG 1.1//EN" "http://www.w3.org/Graphics/SVG/1.1/DTD/svg11.dtd">
<svg width="100%" height="100%" viewBox="0 0 296 296" version="1.1" xmlns="http://www.w3.org/2000/svg" xmlns:xlink="http://www.w3.org/1999/xlink" xml:space="preserve" xmlns:serif="http://www.serif.com/" style="fill-rule:evenodd;clip-rule:evenodd;stroke-linecap:round;stroke-linejoin:round;stroke-miterlimit:1.5;">
    <g transform="matrix(1,0,0,1,-1470.05,-471.154)">
        <g transform="matrix(1,0,0,1,308.862,61.5)">
            <g transform="matrix(0.815678,0,0,0.815678,957.477,114.587)">
                <rect x="250" y="362" width="362" height="362" style="fill:none;stroke:black;stroke-width:0.51px;"/>
            </g>
            <g transform="matrix(1.00355,0,0,1.00355,903.098,34.1481)">
                <circle cx="404.5" cy="521.5" r="76.5" style="fill:none;stroke:black;stroke-width:0.42px;"/>
            </g>
            <g transform="matrix(0.694766,0,0,0.694766,1028,195.179)">
                <circle cx="404.5" cy="521.5" r="76.5" style="fill:none;stroke:black;stroke-width:0.6px;"/>
            </g>
            <g transform="matrix(1.31234,0,0,1.31234,778.195,-126.883)">
                <circle cx="404.5" cy="521.5" r="76.5" style="fill:none;stroke:black;stroke-width:0.32px;"/>
            </g>
            <g transform="matrix(1.62112,0,0,1.62112,653.291,-287.915)">
                <circle cx="404.5" cy="521.5" r="76.5" style="fill:none;stroke:black;stroke-width:0.26px;"/>
            </g>
            <g transform="matrix(0.0906284,0,0,0.0906284,1219.2,510.237)">
                <circle cx="404.5" cy="521.5" r="76.5" style="fill:rgb(198,198,198);stroke:black;stroke-width:11.03px;"/>
            </g>
            <g transform="matrix(0.0906284,0,0,0.0906284,1195.61,510.237)">
                <circle cx="404.5" cy="521.5" r="76.5" style="fill:rgb(198,198,198);stroke:black;stroke-width:11.03px;"/>
            </g>
            <g transform="matrix(0.0906284,0,0,0.0906284,1171.97,510.237)">
                <circle cx="404.5" cy="521.5" r="76.5" style="fill:rgb(198,198,198);stroke:black;stroke-width:11.03px;"/>
            </g>
            <g transform="matrix(0.0906284,0,0,0.0906284,1148.35,510.237)">
                <circle cx="404.5" cy="521.5" r="76.5" style="fill:rgb(198,198,198);stroke:black;stroke-width:11.03px;"/>
            </g>
            <g transform="matrix(0.0906284,0,0,0.0906284,1396.39,510.237)">
                <circle cx="404.5" cy="521.5" r="76.5" style="fill:rgb(198,198,198);stroke:black;stroke-width:11.03px;"/>
            </g>
            <g transform="matrix(0.0640839,-0.0640839,0.0640839,0.0640839,1161.99,637.7)">
                <circle cx="404.5" cy="521.5" r="76.5" style="fill:rgb(198,198,198);stroke:black;stroke-width:11.03px;"/>
            </g>
            <g transform="matrix(0.0640839,-0.0640839,0.0640839,0.0640839,1337.38,462.305)">
                <circle cx="404.5" cy="521.5" r="76.5" style="fill:rgb(198,198,198);stroke:black;stroke-width:11.03px;"/>
            </g>
            <g transform="matrix(0,-0.0906284,0.0906284,0,1261.77,718.182)">
                <circle cx="404.5" cy="521.5" r="76.5" style="fill:rgb(198,198,198);stroke:black;stroke-width:11.03px;"/>
            </g>
            <g transform="matrix(0,-0.0906284,0.0906284,0,1261.77,470.136)">
                <circle cx="404.5" cy="521.5" r="76.5" style="fill:rgb(198,198,198);stroke:black;stroke-width:11.03px;"/>
            </g>
            <g transform="matrix(-0.0640839,-0.0640839,0.0640839,-0.0640839,1389.23,704.539)">
                <circle cx="404.5" cy="521.5" r="76.5" style="fill:rgb(198,198,198);stroke:black;stroke-width:11.03px;"/>
            </g>
            <g transform="matrix(-0.0640839,-0.0640839,0.0640839,-0.0640839,1213.83,529.144)">
                <circle cx="404.5" cy="521.5" r="76.5" style="fill:rgb(198,198,198);stroke:black;stroke-width:11.03px;"/>
            </g>
            <g transform="matrix(0.0906284,0,0,0.0906284,1372.75,510.237)">
                <circle cx="404.5" cy="521.5" r="76.5" style="fill:rgb(198,198,198);stroke:black;stroke-width:11.03px;"/>
            </g>
            <g transform="matrix(0.0906284,0,0,0.0906284,1396.42,510.237)">
                <circle cx="404.5" cy="521.5" r="76.5" style="fill:rgb(198,198,198);stroke:black;stroke-width:11.03px;"/>
            </g>
            <g transform="matrix(0.0640839,-0.0640839,0.0640839,0.0640839,1178.69,620.989)">
                <circle cx="404.5" cy="521.5" r="76.5" style="fill:rgb(198,198,198);stroke:black;stroke-width:11.03px;"/>
            </g>
            <g transform="matrix(0.0640839,-0.0640839,0.0640839,0.0640839,1320.66,479.015)">
                <circle cx="404.5" cy="521.5" r="76.5" style="fill:rgb(198,198,198);stroke:black;stroke-width:11.03px;"/>
            </g>
            <g transform="matrix(0,-0.0906284,0.0906284,0,1261.77,694.55)">
                <circle cx="404.5" cy="521.5" r="76.5" style="fill:rgb(198,198,198);stroke:black;stroke-width:11.03px;"/>
            </g>
            <g transform="matrix(0,-0.0906284,0.0906284,0,1261.77,493.768)">
                <circle cx="404.5" cy="521.5" r="76.5" style="fill:rgb(198,198,198);stroke:black;stroke-width:11.03px;"/>
            </g>
            <g transform="matrix(-0.0640839,-0.0640839,0.0640839,-0.0640839,1372.51,687.829)">
                <circle cx="404.5" cy="521.5" r="76.5" style="fill:rgb(198,198,198);stroke:black;stroke-width:11.03px;"/>
            </g>
            <g transform="matrix(-0.0640839,-0.0640839,0.0640839,-0.0640839,1230.53,545.855)">
                <circle cx="404.5" cy="521.5" r="76.5" style="fill:rgb(198,198,198);stroke:black;stroke-width:11.03px;"/>
            </g>
            <g transform="matrix(0.0906284,0,0,0.0906284,1325.51,510.237)">
                <circle cx="404.5" cy="521.5" r="76.5" style="fill:rgb(198,198,198);stroke:black;stroke-width:11.03px;"/>
            </g>
            <g transform="matrix(5.54939e-18,-0.0906284,0.0906284,5.54939e-18,1261.77,647.314)">
                <circle cx="404.5" cy="521.5" r="76.5" style="fill:rgb(198,198,198);stroke:black;stroke-width:11.03px;"/>
            </g>
            <g transform="matrix(5.54939e-18,-0.0906284,0.0906284,5.54939e-18,1261.77,541.004)">
                <circle cx="404.5" cy="521.5" r="76.5" style="fill:rgb(198,198,198);stroke:black;stroke-width:11.03px;"/>
            </g>
            <g transform="matrix(-0.0640839,-0.0640839,0.0640839,-0.0640839,1339.12,654.428)">
                <circle cx="404.5" cy="521.5" r="76.5" style="fill:rgb(198,198,198);stroke:black;stroke-width:11.03px;"/>
            </g>
            <g transform="matrix(-0.0640839,-0.0640839,0.0640839,-0.0640839,1263.95,579.256)">
                <circle cx="404.5" cy="521.5" r="76.5" style="fill:rgb(198,198,198);stroke:black;stroke-width:11.03px;"/>
            </g>
            <g transform="matrix(-0.0640839,0.0640839,-0.0640839,-0.0640839,1405.96,527.412)">
                <circle cx="404.5" cy="521.5" r="76.5" style="fill:rgb(198,198,198);stroke:black;stroke-width:11.03px;"/>
            </g>
            <g transform="matrix(-0.0640839,0.0640839,-0.0640839,-0.0640839,1330.79,602.584)">
                <circle cx="404.5" cy="521.5" r="76.5" style="fill:rgb(198,198,198);stroke:black;stroke-width:11.03px;"/>
            </g>
            <g transform="matrix(0.0906284,0,0,0.0906284,1349.15,510.237)">
                <circle cx="404.5" cy="521.5" r="76.5" style="fill:rgb(198,198,198);stroke:black;stroke-width:11.03px;"/>
            </g>
            <g transform="matrix(5.54939e-18,-0.0906284,0.0906284,5.54939e-18,1261.77,670.924)">
                <circle cx="404.5" cy="521.5" r="76.5" style="fill:rgb(198,198,198);stroke:black;stroke-width:11.03px;"/>
            </g>
            <g transform="matrix(5.54939e-18,-0.0906284,0.0906284,5.54939e-18,1261.77,517.394)">
                <circle cx="404.5" cy="521.5" r="76.5" style="fill:rgb(198,198,198);stroke:black;stroke-width:11.03px;"/>
            </g>
            <g transform="matrix(-0.0640839,-0.0640839,0.0640839,-0.0640839,1355.82,671.123)">
                <circle cx="404.5" cy="521.5" r="76.5" style="fill:rgb(198,198,198);stroke:black;stroke-width:11.03px;"/>
            </g>
            <g transform="matrix(-0.0640839,-0.0640839,0.0640839,-0.0640839,1247.26,562.561)">
                <circle cx="404.5" cy="521.5" r="76.5" style="fill:rgb(198,198,198);stroke:black;stroke-width:11.03px;"/>
            </g>
            <g transform="matrix(-0.0640839,0.0640839,-0.0640839,-0.0640839,1422.66,510.717)">
                <circle cx="404.5" cy="521.5" r="76.5" style="fill:rgb(198,198,198);stroke:black;stroke-width:11.03px;"/>
            </g>
            <g transform="matrix(-0.0640839,0.0640839,-0.0640839,-0.0640839,1314.1,619.279)">
                <circle cx="404.5" cy="521.5" r="76.5" style="fill:rgb(198,198,198);stroke:black;stroke-width:11.03px;"/>
            </g>
            <g transform="matrix(0.463177,0,0,0.463177,1121.68,315.953)">
                <circle cx="404.5" cy="521.5" r="76.5" style="fill:white;stroke:black;stroke-width:2.7px;"/>
            </g>
        </g>
    </g>
</svg>
