<?xml version="1.0" encoding="UTF-8" standalone="no"?>
<!DOCTYPE svg PUBLIC "-//W3C//DTD SVG 1.1//EN" "http://www.w3.org/Graphics/SVG/1.1/DTD/svg11.dtd">
<svg width="100%" height="100%" viewBox="0 0 296 296" version="1.1" xmlns="http://www.w3.org/2000/svg" xmlns:xlink="http://www.w3.org/1999/xlink" xml:space="preserve" xmlns:serif="http://www.serif.com/" style="fill-rule:evenodd;clip-rule:evenodd;stroke-linecap:round;stroke-linejoin:round;stroke-miterlimit:1.5;">
    <g transform="matrix(1,0,0,1,-741.119,-471.154)">
        <g transform="matrix(1,0,0,1,308.862,61.5)">
            <g transform="matrix(0.815678,0,0,0.815678,228.546,114.587)">
                <rect x="250" y="362" width="362" height="362" style="fill:none;stroke:black;stroke-width:0.51px;"/>
            </g>
            <g transform="matrix(1.00355,0,0,1.00355,174.167,34.1481)">
                <circle cx="404.5" cy="521.5" r="76.5" style="fill:none;stroke:black;stroke-width:0.42px;"/>
            </g>
            <g transform="matrix(0.694766,0,0,0.694766,299.07,195.179)">
                <circle cx="404.5" cy="521.5" r="76.5" style="fill:none;stroke:black;stroke-width:0.6px;"/>
            </g>
            <g transform="matrix(1.31234,0,0,1.31234,49.2635,-126.883)">
                <circle cx="404.5" cy="521.5" r="76.5" style="fill:none;stroke:black;stroke-width:0.32px;"/>
            </g>
            <g transform="matrix(1.62112,0,0,1.62112,-75.6401,-287.915)">
                <circle cx="404.5" cy="521.5" r="76.5" style="fill:none;stroke:black;stroke-width:0.26px;"/>
            </g>
            <g transform="matrix(0.0906284,0,0,0.0906284,490.266,510.237)">
                <circle cx="404.5" cy="521.5" r="76.5" style="fill:rgb(198,198,198);stroke:black;stroke-width:11.03px;"/>
            </g>
            <g transform="matrix(0.0906284,0,0,0.0906284,596.576,510.237)">
                <circle cx="404.5" cy="521.5" r="76.5" style="fill:rgb(198,198,198);stroke:black;stroke-width:11.03px;"/>
            </g>
            <g transform="matrix(0.0640839,-0.0640839,0.0640839,0.0640839,483.152,587.588)">
                <circle cx="404.5" cy="521.5" r="76.5" style="fill:rgb(198,198,198);stroke:black;stroke-width:11.03px;"/>
            </g>
            <g transform="matrix(0.0640839,-0.0640839,0.0640839,0.0640839,558.325,512.416)">
                <circle cx="404.5" cy="521.5" r="76.5" style="fill:rgb(198,198,198);stroke:black;stroke-width:11.03px;"/>
            </g>
            <g transform="matrix(-0.0640839,-0.0640839,0.0640839,-0.0640839,610.168,654.428)">
                <circle cx="404.5" cy="521.5" r="76.5" style="fill:rgb(198,198,198);stroke:black;stroke-width:11.03px;"/>
            </g>
            <g transform="matrix(-0.0640839,-0.0640839,0.0640839,-0.0640839,534.996,579.256)">
                <circle cx="404.5" cy="521.5" r="76.5" style="fill:rgb(198,198,198);stroke:black;stroke-width:11.03px;"/>
            </g>
            <g transform="matrix(0.0906284,0,0,0.0906284,466.68,510.237)">
                <circle cx="404.5" cy="521.5" r="76.5" style="fill:rgb(198,198,198);stroke:black;stroke-width:11.03px;"/>
            </g>
            <g transform="matrix(0.0906284,0,0,0.0906284,443.037,510.237)">
                <circle cx="404.5" cy="521.5" r="76.5" style="fill:rgb(198,198,198);stroke:black;stroke-width:11.03px;"/>
            </g>
            <g transform="matrix(0.0906284,0,0,0.0906284,419.416,510.237)">
                <circle cx="404.5" cy="521.5" r="76.5" style="fill:rgb(198,198,198);stroke:black;stroke-width:11.03px;"/>
            </g>
            <g transform="matrix(0.0906284,0,0,0.0906284,667.462,510.237)">
                <circle cx="404.5" cy="521.5" r="76.5" style="fill:rgb(198,198,198);stroke:black;stroke-width:11.03px;"/>
            </g>
            <g transform="matrix(0.0640839,-0.0640839,0.0640839,0.0640839,433.059,637.7)">
                <circle cx="404.5" cy="521.5" r="76.5" style="fill:rgb(198,198,198);stroke:black;stroke-width:11.03px;"/>
            </g>
            <g transform="matrix(0.0640839,-0.0640839,0.0640839,0.0640839,608.454,462.305)">
                <circle cx="404.5" cy="521.5" r="76.5" style="fill:rgb(198,198,198);stroke:black;stroke-width:11.03px;"/>
            </g>
            <g transform="matrix(0,-0.0906284,0.0906284,0,532.835,718.182)">
                <circle cx="404.5" cy="521.5" r="76.5" style="fill:rgb(198,198,198);stroke:black;stroke-width:11.03px;"/>
            </g>
            <g transform="matrix(0,-0.0906284,0.0906284,0,532.835,470.136)">
                <circle cx="404.5" cy="521.5" r="76.5" style="fill:rgb(198,198,198);stroke:black;stroke-width:11.03px;"/>
            </g>
            <g transform="matrix(-0.0640839,-0.0640839,0.0640839,-0.0640839,660.298,704.539)">
                <circle cx="404.5" cy="521.5" r="76.5" style="fill:rgb(198,198,198);stroke:black;stroke-width:11.03px;"/>
            </g>
            <g transform="matrix(-0.0640839,-0.0640839,0.0640839,-0.0640839,484.903,529.144)">
                <circle cx="404.5" cy="521.5" r="76.5" style="fill:rgb(198,198,198);stroke:black;stroke-width:11.03px;"/>
            </g>
            <g transform="matrix(0.0906284,0,0,0.0906284,643.819,510.237)">
                <circle cx="404.5" cy="521.5" r="76.5" style="fill:rgb(198,198,198);stroke:black;stroke-width:11.03px;"/>
            </g>
            <g transform="matrix(0.0906284,0,0,0.0906284,667.491,510.237)">
                <circle cx="404.5" cy="521.5" r="76.5" style="fill:rgb(198,198,198);stroke:black;stroke-width:11.03px;"/>
            </g>
            <g transform="matrix(0.0640839,-0.0640839,0.0640839,0.0640839,449.758,620.989)">
                <circle cx="404.5" cy="521.5" r="76.5" style="fill:rgb(198,198,198);stroke:black;stroke-width:11.03px;"/>
            </g>
            <g transform="matrix(0.0640839,-0.0640839,0.0640839,0.0640839,591.733,479.015)">
                <circle cx="404.5" cy="521.5" r="76.5" style="fill:rgb(198,198,198);stroke:black;stroke-width:11.03px;"/>
            </g>
            <g transform="matrix(0,-0.0906284,0.0906284,0,532.825,694.55)">
                <circle cx="404.5" cy="521.5" r="76.5" style="fill:rgb(198,198,198);stroke:black;stroke-width:11.03px;"/>
            </g>
            <g transform="matrix(0,-0.0906284,0.0906284,0,532.825,493.768)">
                <circle cx="404.5" cy="521.5" r="76.5" style="fill:rgb(198,198,198);stroke:black;stroke-width:11.03px;"/>
            </g>
            <g transform="matrix(-0.0640839,-0.0640839,0.0640839,-0.0640839,643.577,687.829)">
                <circle cx="404.5" cy="521.5" r="76.5" style="fill:rgb(198,198,198);stroke:black;stroke-width:11.03px;"/>
            </g>
            <g transform="matrix(-0.0640839,-0.0640839,0.0640839,-0.0640839,501.602,545.855)">
                <circle cx="404.5" cy="521.5" r="76.5" style="fill:rgb(198,198,198);stroke:black;stroke-width:11.03px;"/>
            </g>
            <g transform="matrix(5.54939e-18,-0.0906284,0.0906284,5.54939e-18,532.817,647.314)">
                <circle cx="404.5" cy="521.5" r="76.5" style="fill:rgb(198,198,198);stroke:black;stroke-width:11.03px;"/>
            </g>
            <g transform="matrix(5.54939e-18,-0.0906284,0.0906284,5.54939e-18,532.817,541.004)">
                <circle cx="404.5" cy="521.5" r="76.5" style="fill:rgb(198,198,198);stroke:black;stroke-width:11.03px;"/>
            </g>
            <g transform="matrix(0.0906284,0,0,0.0906284,620.22,510.237)">
                <circle cx="404.5" cy="521.5" r="76.5" style="fill:rgb(198,198,198);stroke:black;stroke-width:11.03px;"/>
            </g>
            <g transform="matrix(5.54939e-18,-0.0906284,0.0906284,5.54939e-18,532.841,670.924)">
                <circle cx="404.5" cy="521.5" r="76.5" style="fill:rgb(198,198,198);stroke:black;stroke-width:11.03px;"/>
            </g>
            <g transform="matrix(5.54939e-18,-0.0906284,0.0906284,5.54939e-18,532.841,517.394)">
                <circle cx="404.5" cy="521.5" r="76.5" style="fill:rgb(198,198,198);stroke:black;stroke-width:11.03px;"/>
            </g>
            <g transform="matrix(-0.0640839,-0.0640839,0.0640839,-0.0640839,626.887,671.123)">
                <circle cx="404.5" cy="521.5" r="76.5" style="fill:rgb(198,198,198);stroke:black;stroke-width:11.03px;"/>
            </g>
            <g transform="matrix(-0.0640839,-0.0640839,0.0640839,-0.0640839,518.325,562.561)">
                <circle cx="404.5" cy="521.5" r="76.5" style="fill:rgb(198,198,198);stroke:black;stroke-width:11.03px;"/>
            </g>
            <g transform="matrix(-0.0640839,0.0640839,-0.0640839,-0.0640839,693.727,510.717)">
                <circle cx="404.5" cy="521.5" r="76.5" style="fill:rgb(198,198,198);stroke:black;stroke-width:11.03px;"/>
            </g>
            <g transform="matrix(-0.0640839,0.0640839,-0.0640839,-0.0640839,585.165,619.279)">
                <circle cx="404.5" cy="521.5" r="76.5" style="fill:rgb(198,198,198);stroke:black;stroke-width:11.03px;"/>
            </g>
        </g>
    </g>
</svg>
