<?xml version="1.0" encoding="UTF-8" standalone="no"?>
<!DOCTYPE svg PUBLIC "-//W3C//DTD SVG 1.1//EN" "http://www.w3.org/Graphics/SVG/1.1/DTD/svg11.dtd">
<svg width="100%" height="100%" viewBox="0 0 50 358" version="1.1" xmlns="http://www.w3.org/2000/svg" xmlns:xlink="http://www.w3.org/1999/xlink" xml:space="preserve" xmlns:serif="http://www.serif.com/" style="fill-rule:evenodd;clip-rule:evenodd;stroke-linecap:round;stroke-linejoin:round;stroke-miterlimit:1.5;">
    <g transform="matrix(1,0,0,1,-2024.96,-497.958)">
        <g transform="matrix(0.806169,0,0,1,392.702,0)">
            <path d="M2030.8,827.413L2030.8,827.413L2030.8,511.151L2080.4,511.151L2080.4,827.413L2080.4,827.413C2080.4,845.116 2069.29,854.796 2055.6,854.796C2041.91,854.796 2030.8,845.116 2030.8,827.413ZM2030.82,510.811L2030.78,510.811C2026.79,510.79 2026,508.152 2026,504.906C2026,501.646 2026.8,499 2030.82,499L2079.48,499L2079.52,499C2083.51,499.021 2084.3,501.659 2084.3,504.906C2084.3,508.152 2083.51,510.79 2079.52,510.811L2079.48,510.811L2030.82,510.811Z" style="fill:none;stroke:black;stroke-width:2.29px;"/>
        </g>
    </g>
</svg>
