<?xml version="1.0" encoding="UTF-8" standalone="no"?>
<!DOCTYPE svg PUBLIC "-//W3C//DTD SVG 1.1//EN" "http://www.w3.org/Graphics/SVG/1.1/DTD/svg11.dtd">
<svg width="100%" height="100%" viewBox="0 0 214 643" version="1.1" xmlns="http://www.w3.org/2000/svg" xmlns:xlink="http://www.w3.org/1999/xlink" xml:space="preserve" xmlns:serif="http://www.serif.com/" style="fill-rule:evenodd;clip-rule:evenodd;stroke-miterlimit:1.5;">
    <g transform="matrix(1,0,0,1,-917.134,-209.249)">
        <g transform="matrix(0.643856,0,0,0.326023,841.261,696.716)">
            <path d="M288.509,430.288C337.386,430.288 377.069,436.48 377.069,444.107C377.069,451.734 336.855,460.961 287.978,460.961C239.101,460.961 199.95,451.734 199.95,444.107C199.95,436.48 239.632,430.288 288.509,430.288Z" style="fill:url(#_Radial1);"/>
        </g>
        <path d="M1002,497L1046,497" style="fill:none;stroke:black;stroke-width:2.08px;"/>
        <path d="M1002,497L1046,497" style="fill:none;stroke:black;stroke-width:2.08px;"/>
        <path d="M1002,497L1046,497" style="fill:none;stroke:black;stroke-width:2.08px;"/>
        <g transform="matrix(1.04545,0,0,1.12195,-46.5455,-313.61)">
            <path d="M1002,497L1046,497" style="fill:none;stroke:black;stroke-width:0.77px;"/>
        </g>
        <path d="M1044.63,210C1050.14,210.999 1052.72,219.875 1049,224C1047.56,225.602 1045.12,226.04 1043,226.423L1043,242C1043.75,245.206 1048.28,243.151 1050,244.85C1053.47,248.278 1051.73,252.544 1050,256.136C1048.97,273.866 1050.24,288.491 1048,305.75L1048,619C1068.7,651.175 1089.27,683.436 1109.36,716C1128.62,747.241 1135.89,781.408 1125.11,817.043C1118.61,838.563 1091.51,845.786 1071.97,849C1062.21,850.605 1052.27,850.799 1042.39,851.293C1036.27,851.599 1030.13,851.498 1024,851.397C1017.87,851.498 1011.73,851.599 1005.61,851.293C995.731,850.799 985.787,850.605 976.029,849C956.495,845.786 929.395,838.563 922.887,817.043C912.11,781.408 919.38,747.241 938.645,716C958.727,683.436 979.301,651.175 1000,619L1000,305.75C997.761,288.491 999.029,273.866 998,256.136C996.267,252.544 994.528,248.278 998,244.85C999.721,243.151 1004.25,245.206 1005,242L1005,226.423C1002.88,226.04 1000.44,225.602 999,224C995.28,219.875 997.856,210.999 1003.37,210L1044.63,210Z" style="fill:none;stroke:black;stroke-width:0.83px;"/>
        <g transform="matrix(1.04413,0,0,1.34635,-44.3662,-88.1491)">
            <path d="M1048.12,255.804L998,255.804L998.964,280.627L1047.04,280.627L1048.12,255.804Z" style="fill-opacity:0.43;"/>
        </g>
    </g>
    <defs>
        <radialGradient id="_Radial1" cx="0" cy="0" r="1" gradientUnits="userSpaceOnUse" gradientTransform="matrix(194.774,-6.19673,8.88549,135.835,288.509,445.625)"><stop offset="0" style="stop-color:rgb(191,191,191);stop-opacity:0.28"/><stop offset="1" style="stop-color:rgb(128,128,128);stop-opacity:0.28"/></radialGradient>
    </defs>
</svg>
