<?xml version="1.0" encoding="UTF-8" standalone="no"?>
<!DOCTYPE svg PUBLIC "-//W3C//DTD SVG 1.1//EN" "http://www.w3.org/Graphics/SVG/1.1/DTD/svg11.dtd">
<svg width="100%" height="100%" viewBox="0 0 374 440" version="1.1" xmlns="http://www.w3.org/2000/svg" xmlns:xlink="http://www.w3.org/1999/xlink" xml:space="preserve" xmlns:serif="http://www.serif.com/" style="fill-rule:evenodd;clip-rule:evenodd;stroke-linecap:round;stroke-linejoin:round;stroke-miterlimit:1.5;">
    <g transform="matrix(1,0,0,1,-1237.96,-1912.96)">
        <path d="M1403.98,1923.1L1403.94,1923.1C1400.65,1923.08 1400,1921.05 1400,1918.55C1400,1916.04 1400.66,1914 1403.98,1914L1444.08,1914L1444.12,1914C1447.4,1914.02 1448.06,1916.05 1448.06,1918.55C1448.06,1921.05 1447.4,1923.08 1444.12,1923.1L1444.08,1923.1L1403.98,1923.1ZM1399.02,2161.94C1402.18,2158.78 1403.96,2154.49 1403.96,2150.01C1403.96,2111.15 1403.96,1923.36 1403.96,1923.36L1444.84,1923.36L1444.84,2150.01C1444.84,2154.49 1446.62,2158.78 1449.79,2161.94C1476.66,2188.8 1603.94,2316.03 1603.94,2316.03L1603.94,2316.03C1612.84,2324.93 1611.23,2336.27 1603.25,2344.25C1595.27,2352.23 1583.93,2353.84 1575.03,2344.94L1575.03,2344.94L1451.93,2221.84C1451.93,2221.84 1451.96,2216.36 1451.98,2212.86C1451.99,2212.11 1451.69,2211.4 1451.15,2210.89C1450.61,2210.38 1449.89,2210.11 1449.15,2210.15C1445.79,2210.32 1440.68,2210.59 1440.68,2210.59C1440.68,2210.59 1435.25,2205.16 1430.67,2200.58C1427.25,2197.16 1421.7,2197.16 1418.28,2200.58C1389.92,2228.94 1273.93,2344.94 1273.93,2344.94L1273.93,2344.94C1265.02,2353.84 1253.68,2352.23 1245.7,2344.25C1237.72,2336.27 1236.12,2324.93 1245.02,2316.03L1245.02,2316.03C1245.02,2316.03 1372.17,2188.8 1399.02,2161.94Z" style="fill:none;stroke:black;stroke-width:2.08px;"/>
    </g>
</svg>
