<?xml version="1.0" encoding="UTF-8" standalone="no"?>
<!DOCTYPE svg PUBLIC "-//W3C//DTD SVG 1.1//EN" "http://www.w3.org/Graphics/SVG/1.1/DTD/svg11.dtd">
<svg width="100%" height="100%" viewBox="0 0 127 849" version="1.1" xmlns="http://www.w3.org/2000/svg" xmlns:xlink="http://www.w3.org/1999/xlink" xml:space="preserve" xmlns:serif="http://www.serif.com/" style="fill-rule:evenodd;clip-rule:evenodd;stroke-miterlimit:1.5;">
    <g transform="matrix(1,0,0,1,-991.873,-955.873)">
        <g transform="matrix(0.372202,0,0,0.322667,755.663,889.03)">
            <path d="M779.456,222.463C775.469,222.443 774.679,219.804 774.679,216.558C774.679,213.298 775.475,210.652 779.503,210.652L828.155,210.652L828.202,210.652C832.189,210.673 832.979,213.311 832.979,216.558C832.979,219.817 832.182,222.463 828.155,222.463L779.503,222.463L779.456,222.463Z" style="fill:none;stroke:black;stroke-width:3.59px;"/>
        </g>
        <g transform="matrix(0.869403,0,0,0.869403,-247.712,187.157)">
            <g transform="matrix(6.21827e-17,-1.01552,1,6.12323e-17,132.085,2889.87)">
                <rect x="1210" y="1358" width="621" height="17" style="fill:none;stroke:black;stroke-width:1.43px;"/>
            </g>
            <g transform="matrix(6.12323e-17,-1,1,6.12323e-17,134.085,2863.09)">
                <path d="M1772,1338L1772,1317C1772,1315.67 1771.47,1314.4 1770.54,1313.46C1769.6,1312.53 1768.33,1312 1767,1312C1757.78,1312 1738.22,1312 1729,1312C1726.24,1312 1724,1309.76 1724,1307C1724,1304.22 1724,1300.78 1724,1298C1724,1295.24 1726.24,1293 1729,1293C1741.42,1293 1773.58,1293 1786,1293C1788.76,1293 1791,1295.24 1791,1298L1791,1338L1807.5,1338C1819.62,1338 1829.85,1345.25 1833,1356.36L1833,1356C1833,1356 1834.6,1356 1835.85,1356C1836.83,1356 1837.81,1355.87 1838.76,1355.62C1841.5,1354.88 1860.25,1353.33 1860.25,1353.33L1973,1353.33L1973,1374.79L1860.25,1374.79C1860.25,1374.79 1840.82,1373.63 1838.31,1373.18C1837.66,1373.06 1837,1373 1836.33,1373L1833,1373L1832.93,1372.66C1829.79,1383.78 1819.62,1391 1807.5,1391L1294,1391L1294,1431C1294,1433.76 1291.76,1436 1289,1436C1276.58,1436 1244.42,1436 1232,1436C1229.24,1436 1227,1433.76 1227,1431C1227,1428.22 1227,1424.78 1227,1422C1227,1419.24 1229.24,1417 1232,1417C1241.22,1417 1260.78,1417 1270,1417C1271.33,1417 1272.6,1416.47 1273.54,1415.54C1274.47,1414.6 1275,1413.33 1275,1412C1275,1404.45 1275,1391 1275,1391L1227.5,1391C1215.52,1391 1205.39,1384.04 1202.11,1373.12L1202.11,1373.12L1003.99,1373.12L1024.17,1355.88L1202.11,1355.88L1202.11,1355.88C1205.39,1344.96 1215.52,1338 1227.5,1338L1772,1338Z" style="fill:none;stroke:black;stroke-width:1.44px;"/>
            </g>
        </g>
    </g>
</svg>
