<?xml version="1.0" encoding="UTF-8" standalone="no"?>
<!DOCTYPE svg PUBLIC "-//W3C//DTD SVG 1.1//EN" "http://www.w3.org/Graphics/SVG/1.1/DTD/svg11.dtd">
<svg width="100%" height="100%" viewBox="0 0 1105 607" version="1.1" xmlns="http://www.w3.org/2000/svg" xmlns:xlink="http://www.w3.org/1999/xlink" xml:space="preserve" xmlns:serif="http://www.serif.com/" style="fill-rule:evenodd;clip-rule:evenodd;stroke-linejoin:round;stroke-miterlimit:1.5;">
    <g transform="matrix(1,0,0,1,-1181.58,-1136.53)">
        <g transform="matrix(0.0556075,0,0,0.114371,1218.83,1048.94)">
            <rect x="75" y="1131" width="1062" height="537" style="fill:white;fill-opacity:0;stroke:black;stroke-width:9.27px;"/>
        </g>
        <g transform="matrix(0.0556075,0,0,0.114371,2222.77,1048.94)">
            <rect x="75" y="1131" width="1062" height="537" style="fill:white;fill-opacity:0;stroke:black;stroke-width:9.27px;"/>
        </g>
        <g transform="matrix(0.0556075,0,0,0.114371,1218.83,1110.35)">
            <rect x="75" y="1131" width="1062" height="537" style="fill:white;fill-opacity:0;stroke:black;stroke-width:9.27px;"/>
        </g>
        <g transform="matrix(0.0556075,0,0,0.114371,1277.88,1110.35)">
            <rect x="75" y="1131" width="1062" height="537" style="fill:white;fill-opacity:0;stroke:black;stroke-width:9.27px;"/>
        </g>
        <g transform="matrix(0.0556075,0,0,0.114371,1927.49,1110.35)">
            <rect x="75" y="1131" width="1062" height="537" style="fill:white;fill-opacity:0;stroke:black;stroke-width:9.27px;"/>
        </g>
        <g transform="matrix(0.0556075,0,0,0.114371,1986.55,1110.35)">
            <rect x="75" y="1131" width="1062" height="537" style="fill:white;fill-opacity:0;stroke:black;stroke-width:9.27px;"/>
        </g>
        <g transform="matrix(0.0556075,0,0,0.114371,2045.6,1110.35)">
            <rect x="75" y="1131" width="1062" height="537" style="fill:white;fill-opacity:0;stroke:black;stroke-width:9.27px;"/>
        </g>
        <g transform="matrix(0.0556075,0,0,0.114371,2104.66,1110.35)">
            <rect x="75" y="1131" width="1062" height="537" style="fill:white;fill-opacity:0;stroke:black;stroke-width:9.27px;"/>
        </g>
        <g transform="matrix(0.0556075,0,0,0.114371,2163.71,1110.35)">
            <rect x="75" y="1131" width="1062" height="537" style="fill:white;fill-opacity:0;stroke:black;stroke-width:9.27px;"/>
        </g>
        <g transform="matrix(0.0556075,0,0,0.114371,2222.77,1110.35)">
            <rect x="75" y="1131" width="1062" height="537" style="fill:white;fill-opacity:0;stroke:black;stroke-width:9.27px;"/>
        </g>
        <g transform="matrix(0.0556075,0,0,0.114371,1218.83,1171.77)">
            <rect x="75" y="1131" width="1062" height="537" style="fill:white;fill-opacity:0;stroke:black;stroke-width:9.27px;"/>
        </g>
        <g transform="matrix(0.0556075,0,0,0.114371,1277.88,1171.77)">
            <rect x="75" y="1131" width="1062" height="537" style="fill:white;fill-opacity:0;stroke:black;stroke-width:9.27px;"/>
        </g>
        <g transform="matrix(0.0556075,0,0,0.114371,1927.49,1171.77)">
            <rect x="75" y="1131" width="1062" height="537" style="fill:white;fill-opacity:0;stroke:black;stroke-width:9.27px;"/>
        </g>
        <g transform="matrix(0.0556075,0,0,0.114371,1986.55,1171.77)">
            <rect x="75" y="1131" width="1062" height="537" style="fill:white;fill-opacity:0;stroke:black;stroke-width:9.27px;"/>
        </g>
        <g transform="matrix(0.0556075,0,0,0.114371,2045.6,1171.77)">
            <rect x="75" y="1131" width="1062" height="537" style="fill:white;fill-opacity:0;stroke:black;stroke-width:9.27px;"/>
        </g>
        <g transform="matrix(0.0556075,0,0,0.114371,2104.66,1171.77)">
            <rect x="75" y="1131" width="1062" height="537" style="fill:white;fill-opacity:0;stroke:black;stroke-width:9.27px;"/>
        </g>
        <g transform="matrix(0.0556075,0,0,0.114371,2163.71,1171.77)">
            <rect x="75" y="1131" width="1062" height="537" style="fill:white;fill-opacity:0;stroke:black;stroke-width:9.27px;"/>
        </g>
        <g transform="matrix(0.0556075,0,0,0.114371,2222.77,1171.77)">
            <rect x="75" y="1131" width="1062" height="537" style="fill:white;fill-opacity:0;stroke:black;stroke-width:9.27px;"/>
        </g>
        <g transform="matrix(0.0556075,0,0,0.114371,1218.83,1233.19)">
            <rect x="75" y="1131" width="1062" height="537" style="fill:white;fill-opacity:0;stroke:black;stroke-width:9.27px;"/>
        </g>
        <g transform="matrix(0.0556075,0,0,0.114371,1277.88,1233.19)">
            <rect x="75" y="1131" width="1062" height="537" style="fill:white;fill-opacity:0;stroke:black;stroke-width:9.27px;"/>
        </g>
        <g transform="matrix(0.0556075,0,0,0.114371,1336.94,1233.19)">
            <rect x="75" y="1131" width="1062" height="537" style="fill:white;fill-opacity:0;stroke:black;stroke-width:9.27px;"/>
        </g>
        <g transform="matrix(0.0556075,0,0,0.114371,1395.99,1233.19)">
            <rect x="75" y="1131" width="1062" height="537" style="fill:white;fill-opacity:0;stroke:black;stroke-width:9.27px;"/>
        </g>
        <g transform="matrix(0.0556075,0,0,0.114371,1455.05,1233.19)">
            <rect x="75" y="1131" width="1062" height="537" style="fill:white;fill-opacity:0;stroke:black;stroke-width:9.27px;"/>
        </g>
        <g transform="matrix(0.0556075,0,0,0.114371,1514.11,1233.19)">
            <rect x="75" y="1131" width="1062" height="537" style="fill:white;fill-opacity:0;stroke:black;stroke-width:9.27px;"/>
        </g>
        <g transform="matrix(0.0556075,0,0,0.114371,1573.16,1233.19)">
            <rect x="75" y="1131" width="1062" height="537" style="fill:white;fill-opacity:0;stroke:black;stroke-width:9.27px;"/>
        </g>
        <g transform="matrix(0.0556075,0,0,0.114371,1632.22,1233.19)">
            <rect x="75" y="1131" width="1062" height="537" style="fill:white;fill-opacity:0;stroke:black;stroke-width:9.27px;"/>
        </g>
        <g transform="matrix(0.0556075,0,0,0.114371,1691.27,1233.19)">
            <rect x="75" y="1131" width="1062" height="537" style="fill:white;fill-opacity:0;stroke:black;stroke-width:9.27px;"/>
        </g>
        <g transform="matrix(0.0556075,0,0,0.114371,1750.33,1233.19)">
            <rect x="75" y="1131" width="1062" height="537" style="fill:white;fill-opacity:0;stroke:black;stroke-width:9.27px;"/>
        </g>
        <g transform="matrix(0.0556075,0,0,0.114371,1809.38,1233.19)">
            <rect x="75" y="1131" width="1062" height="537" style="fill:white;fill-opacity:0;stroke:black;stroke-width:9.27px;"/>
        </g>
        <g transform="matrix(0.0556075,0,0,0.114371,1868.44,1233.19)">
            <rect x="75" y="1131" width="1062" height="537" style="fill:white;fill-opacity:0;stroke:black;stroke-width:9.27px;"/>
        </g>
        <g transform="matrix(0.0556075,0,0,0.114371,1927.49,1233.19)">
            <rect x="75" y="1131" width="1062" height="537" style="fill:white;fill-opacity:0;stroke:black;stroke-width:9.27px;"/>
        </g>
        <g transform="matrix(0.0556075,0,0,0.114371,1986.55,1233.19)">
            <rect x="75" y="1131" width="1062" height="537" style="fill:white;fill-opacity:0;stroke:black;stroke-width:9.27px;"/>
        </g>
        <g transform="matrix(0.0556075,0,0,0.114371,2045.6,1233.19)">
            <rect x="75" y="1131" width="1062" height="537" style="fill:white;fill-opacity:0;stroke:black;stroke-width:9.27px;"/>
        </g>
        <g transform="matrix(0.0556075,0,0,0.114371,2104.66,1233.19)">
            <rect x="75" y="1131" width="1062" height="537" style="fill:white;fill-opacity:0;stroke:black;stroke-width:9.27px;"/>
        </g>
        <g transform="matrix(0.0556075,0,0,0.114371,2163.71,1233.19)">
            <rect x="75" y="1131" width="1062" height="537" style="fill:white;fill-opacity:0;stroke:black;stroke-width:9.27px;"/>
        </g>
        <g transform="matrix(0.0556075,0,0,0.114371,2222.77,1233.19)">
            <rect x="75" y="1131" width="1062" height="537" style="fill:white;fill-opacity:0;stroke:black;stroke-width:9.27px;"/>
        </g>
        <g transform="matrix(0.0556075,0,0,0.114371,1218.83,1294.61)">
            <rect x="75" y="1131" width="1062" height="537" style="fill:white;fill-opacity:0;stroke:black;stroke-width:9.27px;"/>
        </g>
        <g transform="matrix(0.0556075,0,0,0.114371,1277.88,1294.61)">
            <rect x="75" y="1131" width="1062" height="537" style="fill:white;fill-opacity:0;stroke:black;stroke-width:9.27px;"/>
        </g>
        <g transform="matrix(0.0556075,0,0,0.114371,1336.94,1294.61)">
            <rect x="75" y="1131" width="1062" height="537" style="fill:white;fill-opacity:0;stroke:black;stroke-width:9.27px;"/>
        </g>
        <g transform="matrix(0.0556075,0,0,0.114371,1395.99,1294.61)">
            <rect x="75" y="1131" width="1062" height="537" style="fill:white;fill-opacity:0;stroke:black;stroke-width:9.27px;"/>
        </g>
        <g transform="matrix(0.0556075,0,0,0.114371,1455.05,1294.61)">
            <rect x="75" y="1131" width="1062" height="537" style="fill:white;fill-opacity:0;stroke:black;stroke-width:9.27px;"/>
        </g>
        <g transform="matrix(0.0556075,0,0,0.114371,1514.11,1294.61)">
            <rect x="75" y="1131" width="1062" height="537" style="fill:white;fill-opacity:0;stroke:black;stroke-width:9.27px;"/>
        </g>
        <g transform="matrix(0.0556075,0,0,0.114371,1573.16,1294.61)">
            <rect x="75" y="1131" width="1062" height="537" style="fill:white;fill-opacity:0;stroke:black;stroke-width:9.27px;"/>
        </g>
        <g transform="matrix(0.0556075,0,0,0.114371,1632.22,1294.61)">
            <rect x="75" y="1131" width="1062" height="537" style="fill:white;fill-opacity:0;stroke:black;stroke-width:9.27px;"/>
        </g>
        <g transform="matrix(0.0556075,0,0,0.114371,1691.27,1294.61)">
            <rect x="75" y="1131" width="1062" height="537" style="fill:white;fill-opacity:0;stroke:black;stroke-width:9.27px;"/>
        </g>
        <g transform="matrix(0.0556075,0,0,0.114371,1750.33,1294.61)">
            <rect x="75" y="1131" width="1062" height="537" style="fill:white;fill-opacity:0;stroke:black;stroke-width:9.27px;"/>
        </g>
        <g transform="matrix(0.0556075,0,0,0.114371,1809.38,1294.61)">
            <rect x="75" y="1131" width="1062" height="537" style="fill:white;fill-opacity:0;stroke:black;stroke-width:9.27px;"/>
        </g>
        <g transform="matrix(0.0556075,0,0,0.114371,1868.44,1294.61)">
            <rect x="75" y="1131" width="1062" height="537" style="fill:white;fill-opacity:0;stroke:black;stroke-width:9.27px;"/>
        </g>
        <g transform="matrix(0.0556075,0,0,0.114371,1927.49,1294.61)">
            <rect x="75" y="1131" width="1062" height="537" style="fill:white;fill-opacity:0;stroke:black;stroke-width:9.27px;"/>
        </g>
        <g transform="matrix(0.0556075,0,0,0.114371,1986.55,1294.61)">
            <rect x="75" y="1131" width="1062" height="537" style="fill:white;fill-opacity:0;stroke:black;stroke-width:9.27px;"/>
        </g>
        <g transform="matrix(0.0556075,0,0,0.114371,2045.6,1294.61)">
            <rect x="75" y="1131" width="1062" height="537" style="fill:white;fill-opacity:0;stroke:black;stroke-width:9.27px;"/>
        </g>
        <g transform="matrix(0.0556075,0,0,0.114371,2104.66,1294.61)">
            <rect x="75" y="1131" width="1062" height="537" style="fill:white;fill-opacity:0;stroke:black;stroke-width:9.27px;"/>
        </g>
        <g transform="matrix(0.0556075,0,0,0.114371,2163.71,1294.61)">
            <rect x="75" y="1131" width="1062" height="537" style="fill:white;fill-opacity:0;stroke:black;stroke-width:9.27px;"/>
        </g>
        <g transform="matrix(0.0556075,0,0,0.114371,2222.77,1294.61)">
            <rect x="75" y="1131" width="1062" height="537" style="fill:white;fill-opacity:0;stroke:black;stroke-width:9.27px;"/>
        </g>
        <g transform="matrix(0.0556075,0,0,0.114371,1218.83,1356.02)">
            <rect x="75" y="1131" width="1062" height="537" style="fill:white;fill-opacity:0;stroke:black;stroke-width:9.27px;"/>
        </g>
        <g transform="matrix(0.0556075,0,0,0.114371,1277.88,1356.02)">
            <rect x="75" y="1131" width="1062" height="537" style="fill:white;fill-opacity:0;stroke:black;stroke-width:9.27px;"/>
        </g>
        <g transform="matrix(0.0556075,0,0,0.114371,1336.94,1356.02)">
            <rect x="75" y="1131" width="1062" height="537" style="fill:white;fill-opacity:0;stroke:black;stroke-width:9.27px;"/>
        </g>
        <g transform="matrix(0.0556075,0,0,0.114371,1395.99,1356.02)">
            <rect x="75" y="1131" width="1062" height="537" style="fill:white;fill-opacity:0;stroke:black;stroke-width:9.27px;"/>
        </g>
        <g transform="matrix(0.0556075,0,0,0.114371,1455.05,1356.02)">
            <rect x="75" y="1131" width="1062" height="537" style="fill:white;fill-opacity:0;stroke:black;stroke-width:9.27px;"/>
        </g>
        <g transform="matrix(0.0556075,0,0,0.114371,1514.11,1356.02)">
            <rect x="75" y="1131" width="1062" height="537" style="fill:white;fill-opacity:0;stroke:black;stroke-width:9.27px;"/>
        </g>
        <g transform="matrix(0.0556075,0,0,0.114371,1573.16,1356.02)">
            <rect x="75" y="1131" width="1062" height="537" style="fill:white;fill-opacity:0;stroke:black;stroke-width:9.27px;"/>
        </g>
        <g transform="matrix(0.0556075,0,0,0.114371,1632.22,1356.02)">
            <rect x="75" y="1131" width="1062" height="537" style="fill:white;fill-opacity:0;stroke:black;stroke-width:9.27px;"/>
        </g>
        <g transform="matrix(0.0556075,0,0,0.114371,1691.27,1356.02)">
            <rect x="75" y="1131" width="1062" height="537" style="fill:white;fill-opacity:0;stroke:black;stroke-width:9.27px;"/>
        </g>
        <g transform="matrix(0.0556075,0,0,0.114371,1750.33,1356.02)">
            <rect x="75" y="1131" width="1062" height="537" style="fill:white;fill-opacity:0;stroke:black;stroke-width:9.27px;"/>
        </g>
        <g transform="matrix(0.0556075,0,0,0.114371,1809.38,1356.02)">
            <rect x="75" y="1131" width="1062" height="537" style="fill:white;fill-opacity:0;stroke:black;stroke-width:9.27px;"/>
        </g>
        <g transform="matrix(0.0556075,0,0,0.114371,1868.44,1356.02)">
            <rect x="75" y="1131" width="1062" height="537" style="fill:white;fill-opacity:0;stroke:black;stroke-width:9.27px;"/>
        </g>
        <g transform="matrix(0.0556075,0,0,0.114371,1927.49,1356.02)">
            <rect x="75" y="1131" width="1062" height="537" style="fill:white;fill-opacity:0;stroke:black;stroke-width:9.27px;"/>
        </g>
        <g transform="matrix(0.0556075,0,0,0.114371,1986.55,1356.02)">
            <rect x="75" y="1131" width="1062" height="537" style="fill:white;fill-opacity:0;stroke:black;stroke-width:9.27px;"/>
        </g>
        <g transform="matrix(0.0556075,0,0,0.114371,2045.6,1356.02)">
            <rect x="75" y="1131" width="1062" height="537" style="fill:white;fill-opacity:0;stroke:black;stroke-width:9.27px;"/>
        </g>
        <g transform="matrix(0.0556075,0,0,0.114371,2104.66,1356.02)">
            <rect x="75" y="1131" width="1062" height="537" style="fill:white;fill-opacity:0;stroke:black;stroke-width:9.27px;"/>
        </g>
        <g transform="matrix(0.0556075,0,0,0.114371,2163.71,1356.02)">
            <rect x="75" y="1131" width="1062" height="537" style="fill:white;fill-opacity:0;stroke:black;stroke-width:9.27px;"/>
        </g>
        <g transform="matrix(0.0556075,0,0,0.114371,2222.77,1356.02)">
            <rect x="75" y="1131" width="1062" height="537" style="fill:white;fill-opacity:0;stroke:black;stroke-width:9.27px;"/>
        </g>
        <g transform="matrix(0.0556075,0,0,0.114371,1218.83,1417.44)">
            <rect x="75" y="1131" width="1062" height="537" style="fill:white;fill-opacity:0;stroke:black;stroke-width:9.27px;"/>
        </g>
        <g transform="matrix(0.0278037,0,0,0.114371,1179.91,1048.94)">
            <rect x="75" y="1131" width="1062" height="537" style="fill:white;fill-opacity:0;stroke:black;stroke-width:10.01px;"/>
        </g>
        <g transform="matrix(0.0278037,0,0,0.114371,1179.91,1110.35)">
            <rect x="75" y="1131" width="1062" height="537" style="fill:white;fill-opacity:0;stroke:black;stroke-width:10.01px;"/>
        </g>
        <g transform="matrix(0.0278037,0,0,0.114371,1179.91,1171.77)">
            <rect x="75" y="1131" width="1062" height="537" style="fill:white;fill-opacity:0;stroke:black;stroke-width:10.01px;"/>
        </g>
        <g transform="matrix(0.0278037,0,0,0.114371,1179.91,1233.19)">
            <rect x="75" y="1131" width="1062" height="537" style="fill:white;fill-opacity:0;stroke:black;stroke-width:10.01px;"/>
        </g>
        <g transform="matrix(0.0278037,0,0,0.114371,1179.91,1294.61)">
            <rect x="75" y="1131" width="1062" height="537" style="fill:white;fill-opacity:0;stroke:black;stroke-width:10.01px;"/>
        </g>
        <g transform="matrix(0.0278037,0,0,0.114371,1179.91,1356.02)">
            <rect x="75" y="1131" width="1062" height="537" style="fill:white;fill-opacity:0;stroke:black;stroke-width:10.01px;"/>
        </g>
        <g transform="matrix(0.0278037,0,0,0.114371,1179.91,1417.44)">
            <rect x="75" y="1131" width="1062" height="537" style="fill:white;fill-opacity:0;stroke:black;stroke-width:10.01px;"/>
        </g>
        <g transform="matrix(0.0556075,0,0,0.114371,1277.88,1417.44)">
            <rect x="75" y="1131" width="1062" height="537" style="fill:white;fill-opacity:0;stroke:black;stroke-width:9.27px;"/>
        </g>
        <g transform="matrix(0.0556075,0,0,0.114371,1336.94,1417.44)">
            <rect x="75" y="1131" width="1062" height="537" style="fill:white;fill-opacity:0;stroke:black;stroke-width:9.27px;"/>
        </g>
        <g transform="matrix(0.0556075,0,0,0.114371,1395.99,1417.44)">
            <rect x="75" y="1131" width="1062" height="537" style="fill:white;fill-opacity:0;stroke:black;stroke-width:9.27px;"/>
        </g>
        <g transform="matrix(0.0556075,0,0,0.114371,1455.05,1417.44)">
            <rect x="75" y="1131" width="1062" height="537" style="fill:white;fill-opacity:0;stroke:black;stroke-width:9.27px;"/>
        </g>
        <g transform="matrix(0.0556075,0,0,0.114371,1514.11,1417.44)">
            <rect x="75" y="1131" width="1062" height="537" style="fill:white;fill-opacity:0;stroke:black;stroke-width:9.27px;"/>
        </g>
        <g transform="matrix(0.0556075,0,0,0.114371,1573.16,1417.44)">
            <rect x="75" y="1131" width="1062" height="537" style="fill:white;fill-opacity:0;stroke:black;stroke-width:9.27px;"/>
        </g>
        <g transform="matrix(0.0556075,0,0,0.114371,1632.22,1417.44)">
            <rect x="75" y="1131" width="1062" height="537" style="fill:white;fill-opacity:0;stroke:black;stroke-width:9.27px;"/>
        </g>
        <g transform="matrix(0.0556075,0,0,0.114371,1691.27,1417.44)">
            <rect x="75" y="1131" width="1062" height="537" style="fill:white;fill-opacity:0;stroke:black;stroke-width:9.27px;"/>
        </g>
        <g transform="matrix(0.0556075,0,0,0.114371,1750.33,1417.44)">
            <rect x="75" y="1131" width="1062" height="537" style="fill:white;fill-opacity:0;stroke:black;stroke-width:9.27px;"/>
        </g>
        <g transform="matrix(0.0556075,0,0,0.114371,1809.38,1417.44)">
            <rect x="75" y="1131" width="1062" height="537" style="fill:white;fill-opacity:0;stroke:black;stroke-width:9.27px;"/>
        </g>
        <g transform="matrix(0.0556075,0,0,0.114371,1868.44,1417.44)">
            <rect x="75" y="1131" width="1062" height="537" style="fill:white;fill-opacity:0;stroke:black;stroke-width:9.27px;"/>
        </g>
        <g transform="matrix(0.0556075,0,0,0.114371,1927.49,1417.44)">
            <rect x="75" y="1131" width="1062" height="537" style="fill:white;fill-opacity:0;stroke:black;stroke-width:9.27px;"/>
        </g>
        <g transform="matrix(0.0556075,0,0,0.114371,1986.55,1417.44)">
            <rect x="75" y="1131" width="1062" height="537" style="fill:white;fill-opacity:0;stroke:black;stroke-width:9.27px;"/>
        </g>
        <g transform="matrix(0.0556075,0,0,0.114371,2045.6,1417.44)">
            <rect x="75" y="1131" width="1062" height="537" style="fill:white;fill-opacity:0;stroke:black;stroke-width:9.27px;"/>
        </g>
        <g transform="matrix(0.0556075,0,0,0.114371,2104.66,1417.44)">
            <rect x="75" y="1131" width="1062" height="537" style="fill:white;fill-opacity:0;stroke:black;stroke-width:9.27px;"/>
        </g>
        <g transform="matrix(0.0556075,0,0,0.114371,2163.71,1417.44)">
            <rect x="75" y="1131" width="1062" height="537" style="fill:white;fill-opacity:0;stroke:black;stroke-width:9.27px;"/>
        </g>
        <g transform="matrix(0.0556075,0,0,0.114371,2222.77,1417.44)">
            <rect x="75" y="1131" width="1062" height="537" style="fill:white;fill-opacity:0;stroke:black;stroke-width:9.27px;"/>
        </g>
        <g transform="matrix(0.0556075,0,0,0.0549861,1218.83,1074.76)">
            <rect x="75" y="1131" width="1062" height="537" style="fill:white;fill-opacity:0;stroke:black;stroke-width:15.07px;"/>
        </g>
        <g transform="matrix(0.0556075,0,0,0.0549861,1277.88,1074.76)">
            <rect x="75" y="1131" width="1062" height="537" style="fill:white;fill-opacity:0;stroke:black;stroke-width:15.07px;"/>
        </g>
        <g transform="matrix(0.0556075,0,0,0.0549861,1336.94,1074.76)">
            <rect x="75" y="1131" width="1062" height="537" style="fill:white;fill-opacity:0;stroke:black;stroke-width:15.07px;"/>
        </g>
        <g transform="matrix(0.0556075,0,0,0.0549861,1395.99,1074.76)">
            <rect x="75" y="1131" width="1062" height="537" style="fill:white;fill-opacity:0;stroke:black;stroke-width:15.07px;"/>
        </g>
        <g transform="matrix(0.0556075,0,0,0.0549861,1455.05,1074.76)">
            <rect x="75" y="1131" width="1062" height="537" style="fill:white;fill-opacity:0;stroke:black;stroke-width:15.07px;"/>
        </g>
        <g transform="matrix(0.0556075,0,0,0.0549861,1514.11,1074.76)">
            <rect x="75" y="1131" width="1062" height="537" style="fill:white;fill-opacity:0;stroke:black;stroke-width:15.07px;"/>
        </g>
        <g transform="matrix(0.0556075,0,0,0.0549861,1573.16,1074.76)">
            <rect x="75" y="1131" width="1062" height="537" style="fill:white;fill-opacity:0;stroke:black;stroke-width:15.07px;"/>
        </g>
        <g transform="matrix(0.0556075,0,0,0.0549861,1632.22,1074.76)">
            <rect x="75" y="1131" width="1062" height="537" style="fill:white;fill-opacity:0;stroke:black;stroke-width:15.07px;"/>
        </g>
        <g transform="matrix(0.0556075,0,0,0.0549861,1691.27,1074.76)">
            <rect x="75" y="1131" width="1062" height="537" style="fill:white;fill-opacity:0;stroke:black;stroke-width:15.07px;"/>
        </g>
        <g transform="matrix(0.0556075,0,0,0.0549861,1750.33,1074.76)">
            <rect x="75" y="1131" width="1062" height="537" style="fill:white;fill-opacity:0;stroke:black;stroke-width:15.07px;"/>
        </g>
        <g transform="matrix(0.0556075,0,0,0.0549861,1809.38,1074.76)">
            <rect x="75" y="1131" width="1062" height="537" style="fill:white;fill-opacity:0;stroke:black;stroke-width:15.07px;"/>
        </g>
        <g transform="matrix(0.0556075,0,0,0.0549861,1868.44,1074.76)">
            <rect x="75" y="1131" width="1062" height="537" style="fill:white;fill-opacity:0;stroke:black;stroke-width:15.07px;"/>
        </g>
        <g transform="matrix(0.0556075,0,0,0.0549861,1927.49,1074.76)">
            <rect x="75" y="1131" width="1062" height="537" style="fill:white;fill-opacity:0;stroke:black;stroke-width:15.07px;"/>
        </g>
        <g transform="matrix(0.0556075,0,0,0.0549861,1986.55,1074.76)">
            <rect x="75" y="1131" width="1062" height="537" style="fill:white;fill-opacity:0;stroke:black;stroke-width:15.07px;"/>
        </g>
        <g transform="matrix(0.0556075,0,0,0.0549861,2045.6,1074.76)">
            <rect x="75" y="1131" width="1062" height="537" style="fill:white;fill-opacity:0;stroke:black;stroke-width:15.07px;"/>
        </g>
        <g transform="matrix(0.0556075,0,0,0.0549861,2104.66,1074.76)">
            <rect x="75" y="1131" width="1062" height="537" style="fill:white;fill-opacity:0;stroke:black;stroke-width:15.07px;"/>
        </g>
        <g transform="matrix(0.0556075,0,0,0.0549861,2163.71,1074.76)">
            <rect x="75" y="1131" width="1062" height="537" style="fill:white;fill-opacity:0;stroke:black;stroke-width:15.07px;"/>
        </g>
        <g transform="matrix(0.0556075,0,0,0.0549861,2222.77,1074.76)">
            <rect x="75" y="1131" width="1062" height="537" style="fill:white;fill-opacity:0;stroke:black;stroke-width:15.07px;"/>
        </g>
        <g transform="matrix(0.0278037,0,0,0.114371,1356.19,1490.65)">
            <rect x="75" y="1131" width="1062" height="537" style="fill:white;fill-opacity:0;stroke:black;stroke-width:10.01px;"/>
        </g>
        <g transform="matrix(0.0556075,0,0,0.114371,1395.99,1490.65)">
            <rect x="75" y="1131" width="1062" height="537" style="fill:white;fill-opacity:0;stroke:black;stroke-width:9.27px;"/>
        </g>
        <g transform="matrix(0.0556075,0,0,0.114371,1455.05,1490.65)">
            <rect x="75" y="1131" width="1062" height="537" style="fill:white;fill-opacity:0;stroke:black;stroke-width:9.27px;"/>
        </g>
        <g transform="matrix(0.0556075,0,0,0.114371,1514.11,1490.65)">
            <rect x="75" y="1131" width="1062" height="537" style="fill:white;fill-opacity:0;stroke:black;stroke-width:9.27px;"/>
        </g>
        <g transform="matrix(0.0556075,0,0,0.114371,1573.16,1490.65)">
            <rect x="75" y="1131" width="1062" height="537" style="fill:white;fill-opacity:0;stroke:black;stroke-width:9.27px;"/>
        </g>
        <g transform="matrix(0.0556075,0,0,0.114371,1632.22,1490.65)">
            <rect x="75" y="1131" width="1062" height="537" style="fill:white;fill-opacity:0;stroke:black;stroke-width:9.27px;"/>
        </g>
        <g transform="matrix(0.0556075,0,0,0.114371,1691.27,1490.65)">
            <rect x="75" y="1131" width="1062" height="537" style="fill:white;fill-opacity:0;stroke:black;stroke-width:9.27px;"/>
        </g>
        <g transform="matrix(0.0556075,0,0,0.114371,1750.33,1490.65)">
            <rect x="75" y="1131" width="1062" height="537" style="fill:white;fill-opacity:0;stroke:black;stroke-width:9.27px;"/>
        </g>
        <g transform="matrix(0.0556075,0,0,0.114371,1809.38,1490.65)">
            <rect x="75" y="1131" width="1062" height="537" style="fill:white;fill-opacity:0;stroke:black;stroke-width:9.27px;"/>
        </g>
        <g transform="matrix(0.0556075,0,0,0.114371,1868.44,1490.65)">
            <rect x="75" y="1131" width="1062" height="537" style="fill:white;fill-opacity:0;stroke:black;stroke-width:9.27px;"/>
        </g>
        <g transform="matrix(0.0556075,0,0,0.114371,1927.49,1490.65)">
            <rect x="75" y="1131" width="1062" height="537" style="fill:white;fill-opacity:0;stroke:black;stroke-width:9.27px;"/>
        </g>
        <g transform="matrix(0.0556075,0,0,0.114371,1986.55,1490.65)">
            <rect x="75" y="1131" width="1062" height="537" style="fill:white;fill-opacity:0;stroke:black;stroke-width:9.27px;"/>
        </g>
        <g transform="matrix(0.0556075,0,0,0.114371,2045.6,1490.65)">
            <rect x="75" y="1131" width="1062" height="537" style="fill:white;fill-opacity:0;stroke:black;stroke-width:9.27px;"/>
        </g>
        <g transform="matrix(0.0556075,0,0,0.114371,2104.66,1490.65)">
            <rect x="75" y="1131" width="1062" height="537" style="fill:white;fill-opacity:0;stroke:black;stroke-width:9.27px;"/>
        </g>
        <g transform="matrix(0.0556075,0,0,0.114371,2163.71,1490.65)">
            <rect x="75" y="1131" width="1062" height="537" style="fill:white;fill-opacity:0;stroke:black;stroke-width:9.27px;"/>
        </g>
        <g transform="matrix(0.0556075,0,0,0.114371,2222.77,1490.65)">
            <rect x="75" y="1131" width="1062" height="537" style="fill:white;fill-opacity:0;stroke:black;stroke-width:9.27px;"/>
        </g>
        <g transform="matrix(0.0278037,0,0,0.114371,1356.19,1552.06)">
            <rect x="75" y="1131" width="1062" height="537" style="fill:white;fill-opacity:0;stroke:black;stroke-width:10.01px;"/>
        </g>
        <g transform="matrix(0.0556075,0,0,0.114371,1395.99,1552.06)">
            <rect x="75" y="1131" width="1062" height="537" style="fill:white;fill-opacity:0;stroke:black;stroke-width:9.27px;"/>
        </g>
        <g transform="matrix(0.0556075,0,0,0.114371,1455.05,1552.06)">
            <rect x="75" y="1131" width="1062" height="537" style="fill:white;fill-opacity:0;stroke:black;stroke-width:9.27px;"/>
        </g>
        <g transform="matrix(0.0556075,0,0,0.114371,1514.11,1552.06)">
            <rect x="75" y="1131" width="1062" height="537" style="fill:white;fill-opacity:0;stroke:black;stroke-width:9.27px;"/>
        </g>
        <g transform="matrix(0.0556075,0,0,0.114371,1573.16,1552.06)">
            <rect x="75" y="1131" width="1062" height="537" style="fill:white;fill-opacity:0;stroke:black;stroke-width:9.27px;"/>
        </g>
        <g transform="matrix(0.0556075,0,0,0.114371,1632.22,1552.06)">
            <rect x="75" y="1131" width="1062" height="537" style="fill:white;fill-opacity:0;stroke:black;stroke-width:9.27px;"/>
        </g>
        <g transform="matrix(0.0556075,0,0,0.114371,1691.27,1552.06)">
            <rect x="75" y="1131" width="1062" height="537" style="fill:white;fill-opacity:0;stroke:black;stroke-width:9.27px;"/>
        </g>
        <g transform="matrix(0.0556075,0,0,0.114371,1750.33,1552.06)">
            <rect x="75" y="1131" width="1062" height="537" style="fill:white;fill-opacity:0;stroke:black;stroke-width:9.27px;"/>
        </g>
        <g transform="matrix(0.0556075,0,0,0.114371,1809.38,1552.06)">
            <rect x="75" y="1131" width="1062" height="537" style="fill:white;fill-opacity:0;stroke:black;stroke-width:9.27px;"/>
        </g>
        <g transform="matrix(0.0556075,0,0,0.114371,1868.44,1552.06)">
            <rect x="75" y="1131" width="1062" height="537" style="fill:white;fill-opacity:0;stroke:black;stroke-width:9.27px;"/>
        </g>
        <g transform="matrix(0.0556075,0,0,0.114371,1927.49,1552.06)">
            <rect x="75" y="1131" width="1062" height="537" style="fill:white;fill-opacity:0;stroke:black;stroke-width:9.27px;"/>
        </g>
        <g transform="matrix(0.0556075,0,0,0.114371,1986.55,1552.06)">
            <rect x="75" y="1131" width="1062" height="537" style="fill:white;fill-opacity:0;stroke:black;stroke-width:9.27px;"/>
        </g>
        <g transform="matrix(0.0556075,0,0,0.114371,2045.6,1552.06)">
            <rect x="75" y="1131" width="1062" height="537" style="fill:white;fill-opacity:0;stroke:black;stroke-width:9.27px;"/>
        </g>
        <g transform="matrix(0.0556075,0,0,0.114371,2104.66,1552.06)">
            <rect x="75" y="1131" width="1062" height="537" style="fill:white;fill-opacity:0;stroke:black;stroke-width:9.27px;"/>
        </g>
        <g transform="matrix(0.0556075,0,0,0.114371,2163.71,1552.06)">
            <rect x="75" y="1131" width="1062" height="537" style="fill:white;fill-opacity:0;stroke:black;stroke-width:9.27px;"/>
        </g>
        <g transform="matrix(0.0556075,0,0,0.114371,2222.77,1552.06)">
            <rect x="75" y="1131" width="1062" height="537" style="fill:white;fill-opacity:0;stroke:black;stroke-width:9.27px;"/>
        </g>
    </g>
</svg>
